<?xml version="1.0" standalone="no"?> <!DOCTYPE svg PUBLIC "-//W3C//DTD SVG 20010904//EN" "http://www.w3.org/TR/2001/REC-SVG-20010904/DTD/svg10.dtd"> <svg version="1.0" xmlns="http://www.w3.org/2000/svg" width="600.000000pt" height="600.000000pt" viewBox="0 0 600.000000 600.000000" preserveAspectRatio="xMidYMid meet"> <g transform="translate(0.000000,600.000000) scale(0.100000,-0.100000)" fill="#000000" stroke="none"> <path d="M2690 5109 c-113 -13 -266 -55 -350 -97 -104 -51 -210 -156 -235 -232 -82 -248 93 -596 570 -1134 72 -81 148 -167 169 -191 l39 -45 -54 -58 c-94 -102 -120 -130 -291 -327 -16 -20 -15 -22 37 -80 30 -33 55 -63 55 -67 0 -18 23 -6 48 24 15 18 81 93 147 167 66 74 134 150 150 169 l31 35 55 -59 c73 -77 224 -246 272 -306 l39 -47 26 32 c15 18 35 41 44 51 17 19 17 21 0 40 -30 35 -382 417 -461 502 -151 160 -188 201 -282 309 -257 299 -381 471 -465 648 -100 212 -93 360 21 472 61 59 245 149 233 114 -3 -8 -12 -13 -20 -11 -9 1 -30 -12 -49 -30 -18 -18 -27 -25 -20 -15 37 48 -75 -11 -137 -72 -105 -105 -107 -261 -7 -463 115 -233 314 -486 740 -943 137 -147 328 -354 407 -443 25 -28 48 -48 51 -44 2 4 3 2 1 -4 -5 -23 11 -33 30 -18 22 15 18 19 -225 289 l-126 141 81 85 c339 356 606 733 687 969 33 97 37 238 10 310 -24 65 -89 145 -148 183 -152 99 -396 159 -633 155 -52 -1 -79 -3 -60 -5 253 -24 436 -86 566 -191 138 -111 162 -241 81 -441 -74 -183 -279 -462 -594 -807 -57 -62 -103 -117 -103 -121 0 -5 23 -31 50 -58 45 -44 56 -49 51 -22 -1 5 4 5 11 1 8 -4 10 -3 5 2 -5 5 -14 9 -20 9 -7 0 -11 8 -11 17 1 11 -4 14 -15 10 -14 -5 -14 -4 -2 11 8 10 15 16 17 14 6 -5 128 116 154 153 14 19 33 43 42 52 10 10 18 23 18 29 0 5 6 7 13 3 6 -4 9 -4 5 0 -4 4 9 21 28 38 19 16 32 34 29 38 -3 5 4 11 14 15 11 3 23 15 26 26 4 10 15 24 26 29 10 6 19 17 19 24 0 8 8 20 18 27 15 12 16 12 6 -1 -17 -22 -14 -49 5 -42 10 4 11 7 3 10 -7 2 -12 8 -12 13 0 6 4 8 9 5 5 -4 8 2 7 11 -2 10 2 26 8 35 10 16 11 16 30 0 18 -16 18 -16 5 6 -13 21 -12 25 11 43 14 12 19 18 11 14 -9 -5 -8 0 4 18 9 14 22 28 30 31 8 2 19 15 25 27 10 17 9 20 -2 14 -7 -3 -4 1 6 9 16 13 22 13 35 3 14 -11 14 -10 2 5 -7 10 -18 15 -25 11 -6 -3 -2 5 10 18 11 13 31 41 43 62 23 38 40 52 21 18 -7 -14 -7 -22 0 -26 6 -4 9 -3 8 2 -5 20 15 54 28 49 9 -4 12 -1 9 5 -4 6 -13 8 -20 5 -8 -3 5 32 28 78 23 46 45 81 49 79 4 -2 10 2 14 8 5 8 3 9 -6 4 -10 -6 -12 -4 -7 9 4 10 10 29 13 42 3 13 10 22 14 19 9 -6 23 104 21 170 -2 55 4 57 15 5 14 -64 3 -213 -17 -237 -8 -8 -14 -21 -14 -27 -3 -39 -57 -159 -69 -151 -3 3 -4 2 -1 -2 3 -3 -3 -15 -12 -26 -10 -11 -12 -17 -6 -13 24 14 2 -22 -23 -39 -14 -9 -23 -21 -22 -28 4 -17 -54 -107 -65 -100 -4 3 -7 -1 -5 -8 1 -8 -5 -26 -15 -40 -14 -21 -25 -26 -53 -24 -32 1 -34 0 -19 -12 15 -10 21 -10 33 0 13 10 14 9 3 -10 -6 -13 -17 -23 -23 -23 -6 0 -9 -3 -5 -6 3 -3 -4 -17 -16 -30 -15 -18 -23 -21 -29 -12 -5 8 -7 4 -6 -12 2 -18 -1 -24 -12 -22 -8 2 -12 0 -8 -3 4 -4 -3 -16 -15 -26 -12 -10 -16 -18 -9 -19 6 0 12 5 12 12 0 6 3 8 6 5 4 -4 -18 -32 -50 -64 -31 -31 -56 -60 -56 -64 0 -5 -12 -16 -27 -24 -17 -10 -20 -14 -8 -11 15 5 12 0 -10 -19 -16 -14 -29 -30 -27 -36 1 -6 -2 -8 -8 -4 -5 3 -10 1 -10 -5 0 -6 -5 -8 -12 -4 -6 4 -8 3 -5 -3 9 -15 -29 -47 -45 -37 -9 5 -8 2 2 -11 14 -17 14 -18 -10 -5 -22 12 -24 12 -12 -2 10 -13 10 -19 -3 -32 -9 -9 -14 -16 -10 -16 3 0 -18 -24 -47 -54 l-53 -54 -41 39 c-22 22 -44 36 -48 32 -4 -4 -5 -1 -1 7 3 9 -14 35 -42 66 -238 255 -463 531 -571 698 -60 94 -127 236 -146 312 -34 133 -14 208 83 304 129 129 312 196 601 224 19 1 -14 3 -75 3 -60 0 -144 -3 -185 -8z m-156 -63 c-10 -8 -21 -12 -24 -10 -5 6 21 24 34 24 6 0 1 -6 -10 -14z m1011 -12 c11 -3 25 -6 30 -8 59 -17 169 -89 210 -138 48 -56 65 -106 65 -189 0 -182 -147 -450 -434 -789 -124 -147 -349 -391 -354 -385 -3 3 6 18 19 33 363 400 503 573 617 765 77 129 111 210 126 302 15 88 4 165 -32 225 -42 68 -166 155 -232 162 -14 2 -27 5 -30 8 -3 3 -16 11 -30 18 l-25 13 25 -6 c14 -3 34 -8 45 -11z m-1170 -84 c4 -6 2 -9 -2 -8 -13 4 -72 -57 -104 -107 -28 -44 -43 -81 -44 -104 0 -8 -7 -16 -15 -18 -9 -3 -11 -1 -5 4 6 4 10 22 9 38 0 17 2 35 5 40 3 6 6 13 6 17 0 11 88 108 93 103 3 -2 13 7 24 20 22 28 24 29 33 15z m1285 4 c0 -8 -19 -13 -24 -6 -3 5 1 9 9 9 8 0 15 -2 15 -3z m53 -51 c-7 -3 -23 5 -35 17 l-23 22 35 -17 c19 -10 30 -20 23 -22z m31 -29 c20 -19 20 -24 0 -24 -8 0 -13 4 -9 9 3 6 -3 14 -12 20 -10 6 -13 11 -6 11 6 0 19 -7 27 -16z m36 -55 c5 -8 5 -21 0 -29 -8 -13 -10 -13 -10 -1 0 8 -7 22 -16 32 -14 16 -14 17 1 15 10 -1 21 -9 25 -17z m-1625 -9 c-2 -11 -8 -28 -14 -37 -9 -15 -10 -15 -11 -2 0 9 3 19 8 23 4 4 8 12 8 17 2 16 4 19 8 19 3 0 3 -9 1 -20z m1716 3 c13 -16 12 -17 -3 -4 -17 13 -22 21 -14 21 2 0 10 -8 17 -17z m-66 -113 l5 -45 -14 50 c-18 61 -18 61 -7 50 6 -6 13 -30 16 -55z m-1667 -30 c0 -25 4 -56 11 -68 10 -19 10 -27 -1 -40 -7 -9 -8 -13 -2 -9 21 12 37 -19 23 -45 -6 -13 -8 -20 -4 -16 13 12 35 -12 28 -29 -5 -12 -3 -14 7 -8 10 6 12 4 7 -8 -3 -9 -1 -17 4 -19 6 -2 11 -11 12 -20 2 -9 8 -22 14 -29 6 -8 9 -22 8 -31 -2 -11 2 -15 12 -11 13 5 15 1 11 -19 -4 -21 -2 -25 11 -20 14 5 14 4 2 -11 -12 -15 -12 -17 0 -12 16 6 54 -49 44 -64 -3 -5 0 -13 6 -17 8 -5 10 -2 5 7 -4 8 -1 5 8 -5 8 -10 13 -23 10 -28 -3 -5 -2 -7 3 -6 11 4 53 -34 53 -48 0 -6 7 -17 15 -24 8 -7 15 -22 15 -34 0 -17 2 -18 10 -6 7 12 10 11 16 -5 4 -11 22 -38 41 -61 18 -22 29 -45 25 -49 -4 -5 -2 -5 4 -2 14 8 48 -28 39 -42 -4 -7 1 -9 12 -5 14 4 12 1 -6 -15 -13 -12 -19 -21 -14 -21 5 0 14 5 19 10 8 8 18 4 35 -10 13 -12 18 -19 12 -15 -7 3 -13 1 -13 -4 0 -6 7 -11 15 -11 8 0 15 -6 15 -14 0 -8 9 -18 20 -21 11 -4 18 -10 16 -14 -3 -4 8 -18 24 -30 17 -12 30 -26 30 -32 0 -6 11 -20 25 -31 14 -11 32 -34 40 -52 11 -24 13 -25 9 -6 -6 24 -5 24 17 -5 13 -17 37 -45 53 -63 16 -17 34 -42 40 -54 6 -13 16 -23 21 -23 18 0 35 -16 29 -26 -3 -5 -1 -8 4 -7 11 3 62 -48 62 -63 0 -6 6 -7 13 -3 9 6 9 4 -1 -8 -14 -18 -6 -27 20 -23 10 2 16 -2 15 -8 -1 -6 4 -12 11 -13 6 -1 15 -2 19 -3 3 0 -2 -11 -13 -23 -10 -13 -12 -17 -4 -10 8 6 18 12 22 12 4 0 7 -6 6 -12 -2 -7 3 -12 10 -10 8 1 11 -2 8 -7 -6 -10 11 -26 28 -26 5 0 10 -12 12 -28 2 -17 -1 -25 -8 -21 -6 4 -6 -1 1 -14 6 -12 16 -24 23 -28 8 -5 8 -3 2 7 -5 8 -9 25 -9 37 -1 22 0 23 13 5 7 -10 18 -17 24 -15 7 2 6 -3 -2 -12 -7 -9 -9 -16 -5 -16 4 0 2 -7 -5 -15 -7 -8 -17 -12 -23 -8 -6 4 -7 1 -3 -6 6 -9 12 -9 25 3 10 9 22 13 26 9 5 -5 3 1 -5 11 -14 18 -14 18 7 6 12 -8 20 -17 17 -21 -2 -4 3 -9 11 -13 8 -3 15 -10 15 -16 0 -6 -4 -9 -9 -5 -5 3 -12 1 -15 -4 -7 -11 13 -9 32 3 11 7 12 4 3 -12 -7 -13 -18 -19 -30 -17 -13 2 -18 -1 -15 -9 3 -7 -2 -13 -10 -13 -8 0 -13 4 -11 8 5 8 -15 27 -30 28 -5 1 -10 5 -10 10 0 5 -20 32 -45 61 -25 29 -44 57 -42 61 1 5 -1 8 -5 7 -14 -5 -62 45 -56 56 3 6 3 8 -2 4 -4 -4 -15 -3 -25 2 -14 8 -33 -6 -99 -70 -44 -44 -81 -83 -81 -88 0 -6 -27 -37 -60 -71 -34 -33 -58 -61 -55 -61 3 0 -5 -10 -17 -22 -13 -13 -27 -21 -33 -20 -5 2 -7 0 -3 -3 11 -11 -10 -45 -28 -45 -8 0 -13 3 -11 8 2 4 -4 15 -15 25 -10 9 -18 14 -18 10 0 -5 -9 5 -19 21 -15 22 -17 34 -10 48 6 10 14 16 18 13 5 -2 39 30 77 73 37 42 91 102 119 132 28 30 60 68 72 83 12 16 27 26 33 22 6 -4 -39 -60 -107 -133 -65 -70 -133 -145 -151 -166 -25 -29 -36 -35 -42 -26 -5 8 -8 4 -7 -13 2 -20 5 -23 15 -14 10 8 16 7 23 -4 7 -12 9 -12 10 1 1 8 1 18 0 22 -2 14 113 119 125 114 8 -3 16 -1 19 5 4 5 3 8 -2 7 -4 -2 -9 2 -11 7 -1 6 4 10 11 10 6 0 12 7 12 15 0 8 8 14 18 14 9 -1 14 2 11 7 -7 12 72 102 98 111 10 4 16 13 13 18 -4 6 -1 17 5 25 10 11 7 13 -14 9 -30 -5 -30 -4 -15 30 7 14 8 33 4 43 -5 10 -8 21 -7 25 1 4 -5 5 -13 2 -8 -4 -15 -2 -15 4 0 6 -18 29 -40 51 -44 44 -46 50 -27 71 10 12 9 12 -5 1 -14 -10 -23 -7 -59 27 -27 26 -39 44 -34 53 6 9 3 11 -9 6 -9 -4 -15 -3 -12 2 3 5 -10 23 -29 40 -19 17 -34 32 -33 33 5 7 -22 42 -29 38 -4 -3 -15 9 -23 25 -8 17 -19 30 -23 30 -5 0 -16 13 -25 29 -9 16 -31 45 -49 64 -18 20 -30 39 -27 44 3 5 2 8 -3 7 -18 -3 -28 1 -18 9 6 4 -1 19 -19 37 -16 17 -23 21 -15 10 13 -18 13 -19 -3 -6 -10 7 -16 17 -13 21 3 5 0 14 -7 22 -25 26 -69 88 -64 89 4 1 10 2 15 3 5 0 13 5 18 10 5 5 3 6 -4 2 -8 -4 -13 -2 -13 6 0 10 -3 9 -10 -2 -11 -17 -8 -20 -54 58 -20 35 -33 68 -30 74 4 6 3 8 -3 5 -11 -7 -75 130 -75 160 0 4 -4 15 -9 24 -15 29 -28 138 -19 167 4 16 4 35 0 43 -5 7 -6 17 -3 22 11 17 23 -18 21 -63z m91 13 c0 -5 -4 -17 -9 -28 -8 -18 -9 -17 -9 8 -1 15 4 27 9 27 6 0 10 -3 9 -7z m2 -67 c5 3 9 1 9 -5 0 -5 -4 -13 -10 -16 -5 -3 -10 -4 -10 -1 0 2 -2 10 -3 18 -2 7 -2 10 0 5 3 -4 9 -5 14 -1z m1569 -22 c0 -8 -4 -12 -10 -9 -5 3 -10 13 -10 21 0 8 5 12 10 9 6 -3 10 -13 10 -21z m-1531 -99 c1 -5 -8 4 -19 20 -11 17 -20 39 -19 50 0 14 6 7 19 -20 10 -22 19 -44 19 -50z m1516 53 c-7 -32 -12 -31 -13 2 0 17 3 28 8 25 5 -3 7 -15 5 -27z m-28 -57 c0 -11 -5 -18 -9 -15 -4 3 -5 11 -1 19 7 21 12 19 10 -4z m-1479 -36 c-3 -3 -9 2 -12 12 -6 14 -5 15 5 6 7 -7 10 -15 7 -18z m1453 -18 c-10 -9 -11 -8 -5 6 3 10 9 15 12 12 3 -3 0 -11 -7 -18z m-1422 -37 c0 -10 -3 -8 -9 5 -12 27 -12 43 0 25 5 -8 9 -22 9 -30z m1394 -25 c-3 -9 -8 -14 -10 -11 -3 3 -2 9 2 15 9 16 15 13 8 -4z m-223 -329 c0 -2 -8 -10 -17 -17 -16 -13 -17 -12 -4 4 13 16 21 21 21 13z m-250 -390 c0 -3 -4 -8 -10 -11 -5 -3 -10 -1 -10 4 0 6 5 11 10 11 6 0 10 -2 10 -4z m-280 -167 c0 -6 -4 -7 -10 -4 -5 3 -10 11 -10 16 0 6 5 7 10 4 6 -3 10 -11 10 -16z m-80 -339 c0 -5 -5 -10 -11 -10 -5 0 -7 5 -4 10 3 6 8 10 11 10 2 0 4 -4 4 -10z m466 -81 c0 -8 -4 -21 -10 -29 -6 -8 0 -6 13 5 l24 20 -13 -25 c-13 -24 -12 -24 5 -10 17 14 18 13 12 -4 -7 -17 -5 -17 10 -5 10 7 15 9 11 5 -5 -5 7 -18 25 -29 18 -12 27 -22 20 -24 -7 -3 -13 -10 -13 -16 0 -20 -32 -46 -48 -40 -10 4 -28 18 -42 31 -14 14 -19 22 -12 18 24 -14 12 7 -23 39 -24 21 -33 37 -29 48 3 9 10 15 14 12 4 -3 13 2 20 10 15 18 35 15 36 -6z"/> <path d="M2145 4529 c-4 -6 -4 -13 -1 -16 3 -4 6 -1 6 6 0 7 5 9 10 6 6 -3 10 -1 10 4 0 14 -17 14 -25 0z"/> <path d="M2261 4253 c7 -12 15 -20 18 -17 3 2 -3 12 -13 22 -17 16 -18 16 -5 -5z"/> <path d="M2496 3927 c3 -10 9 -15 12 -12 3 3 0 11 -7 18 -10 9 -11 8 -5 -6z"/> <path d="M2546 3912 c-3 -5 1 -9 9 -9 8 0 12 4 9 9 -3 4 -7 8 -9 8 -2 0 -6 -4 -9 -8z"/> <path d="M2964 3380 c0 -13 4 -16 10 -10 7 7 7 13 0 20 -6 6 -10 3 -10 -10z"/> <path d="M3227 3099 c7 -7 15 -10 18 -7 3 3 -2 9 -12 12 -14 6 -15 5 -6 -5z"/> <path d="M2624 2952 c4 -3 14 -7 22 -8 9 -1 13 0 10 4 -4 3 -14 7 -22 8 -9 1 -13 0 -10 -4z"/> <path d="M3295 3050 c-3 -6 1 -7 9 -4 18 7 21 14 7 14 -6 0 -13 -4 -16 -10z"/> <path d="M3320 3011 c0 -6 4 -13 10 -16 6 -3 7 1 4 9 -7 18 -14 21 -14 7z"/> <path d="M3383 2987 c0 -8 6 -14 14 -14 9 0 10 4 2 14 -6 7 -12 13 -14 13 -1 0 -2 -6 -2 -13z"/> <path d="M3379 2947 c6 -8 7 -18 3 -22 -4 -5 -1 -5 6 -1 10 6 10 11 1 22 -6 8 -14 14 -16 14 -3 0 0 -6 6 -13z"/> <path d="M2770 5056 c0 -2 7 -7 16 -10 8 -3 12 -2 9 4 -6 10 -25 14 -25 6z"/> <path d="M3736 5032 c-3 -5 1 -9 9 -9 8 0 12 4 9 9 -3 4 -7 8 -9 8 -2 0 -6 -4 -9 -8z"/> <path d="M3870 4935 c0 -2 26 -18 58 -35 113 -60 230 -179 278 -285 69 -149 76 -365 17 -550 -46 -147 -129 -313 -236 -475 -135 -203 -413 -536 -652 -780 -174 -179 -309 -320 -316 -331 -5 -9 -140 124 -295 291 -38 41 -74 78 -81 83 -14 9 -209 227 -324 361 -318 375 -510 714 -558 990 -52 289 68 548 317 689 29 16 51 32 48 34 -8 8 -174 -86 -248 -139 -182 -132 -287 -329 -288 -538 0 -135 37 -293 111 -472 99 -241 332 -573 588 -841 l94 -98 -25 -27 c-31 -33 -112 -144 -202 -276 -58 -85 -66 -102 -53 -111 26 -19 104 -93 112 -105 41 -66 -295 269 -426 425 -264 315 -424 608 -492 899 -30 131 -30 368 0 481 57 214 174 388 362 537 105 83 78 72 -47 -19 -252 -183 -414 -398 -472 -627 -83 -326 -9 -699 211 -1063 124 -206 345 -463 544 -634 47 -40 85 -77 85 -82 0 -5 -15 -50 -34 -101 -19 -50 -37 -112 -41 -138 l-7 -48 -45 33 c-76 54 -253 209 -358 314 -255 253 -429 528 -510 810 -94 323 -70 653 66 916 16 31 25 57 20 57 -10 0 -117 -214 -154 -310 -61 -155 -97 -352 -97 -526 0 -632 378 -1274 1020 -1731 47 -33 97 -66 111 -74 15 -8 54 -49 88 -91 90 -112 222 -218 356 -285 82 -42 366 -140 440 -152 96 -17 136 -20 130 -12 -2 5 -27 11 -54 15 -210 28 -411 199 -437 373 -4 28 -12 43 -24 46 -11 3 -19 13 -19 23 -1 11 -2 36 -4 57 -1 20 0 37 3 37 3 0 6 19 6 43 1 23 8 56 15 72 7 17 12 40 12 52 0 13 4 20 10 16 6 -4 8 0 4 9 -3 9 1 24 8 35 8 10 15 25 15 33 0 8 11 27 23 40 19 20 21 28 12 37 -10 9 -22 -8 -54 -77 -58 -125 -74 -194 -69 -304 5 -119 31 -184 104 -264 31 -34 51 -62 46 -62 -18 0 -101 100 -126 153 -53 108 -57 235 -11 372 32 95 88 209 106 213 8 2 23 13 34 25 11 13 17 18 13 13 -5 -6 -8 -15 -8 -20 1 -10 23 20 26 34 4 22 25 60 32 60 5 0 17 16 28 35 10 19 22 36 26 36 5 1 12 2 17 3 5 0 13 5 18 10 5 5 3 6 -4 2 -23 -13 -13 9 12 27 16 12 25 14 25 6 0 -7 3 -9 6 -6 4 4 1 13 -5 21 -9 11 -9 16 0 22 8 5 9 3 4 -6 -5 -8 -4 -11 3 -6 6 4 8 14 5 23 -4 9 -2 14 3 11 5 -3 15 0 22 8 7 8 10 14 7 14 -3 0 15 21 41 46 34 34 49 43 55 33 4 -7 5 -18 2 -24 -4 -5 3 -1 15 9 27 24 28 9 2 -22 -11 -14 -24 -20 -31 -16 -8 5 -9 3 -4 -5 8 -15 -31 -61 -53 -61 -7 0 -12 -6 -9 -12 2 -7 -9 -21 -25 -30 -15 -10 -28 -24 -28 -33 0 -19 -40 -66 -51 -59 -5 3 -6 -3 -2 -12 4 -12 3 -15 -5 -10 -11 7 -17 -6 -13 -28 1 -5 -5 -6 -13 -3 -20 8 -28 -4 -13 -21 9 -13 9 -14 0 -8 -7 4 -13 2 -14 -3 -4 -36 -1 -56 7 -54 5 1 21 -8 34 -19 14 -11 18 -16 10 -12 -9 4 -12 3 -7 -2 5 -5 12 -9 15 -9 17 -1 52 -31 53 -45 0 -10 2 -11 6 -3 3 9 12 6 28 -10 13 -12 42 -37 64 -55 22 -19 40 -37 40 -40 -1 -4 -1 -14 0 -22 1 -12 3 -13 10 -1 7 10 15 7 38 -18 17 -17 33 -28 36 -24 4 3 7 4 7 2 0 -3 -15 -16 -32 -29 l-33 -24 17 26 c15 23 15 27 2 32 -8 3 -12 2 -9 -4 3 -6 1 -10 -4 -10 -6 0 -11 4 -11 8 0 5 -11 15 -25 22 -13 7 -22 16 -20 20 3 4 -9 13 -25 20 -16 7 -27 16 -25 20 3 5 -4 11 -15 15 -11 4 -18 11 -15 16 3 5 -1 6 -9 3 -9 -3 -16 -1 -16 4 0 6 -9 14 -20 17 -11 4 -18 10 -15 15 3 4 -5 10 -16 13 -15 4 -20 11 -15 23 5 13 4 15 -7 5 -11 -9 -17 -8 -26 2 -6 8 -7 18 -3 22 4 5 1 5 -5 1 -8 -4 -13 -2 -13 5 0 7 -3 9 -7 6 -3 -4 -13 -1 -21 6 -13 10 -15 9 -9 -7 6 -15 5 -17 -7 -7 -13 11 -21 4 -27 -27 -1 -4 -10 -18 -20 -31 -11 -13 -19 -30 -19 -38 0 -8 -4 -12 -9 -8 -5 3 -13 0 -17 -6 -5 -8 -3 -9 6 -4 8 5 11 3 8 -6 -3 -8 -10 -13 -16 -12 -5 1 -9 -5 -8 -15 0 -9 -5 -16 -12 -14 -10 2 -10 -2 -2 -18 7 -13 7 -20 1 -20 -6 0 -7 -8 -4 -17 6 -15 4 -16 -8 -6 -11 9 -14 7 -14 -12 0 -13 3 -21 8 -18 4 2 8 -1 8 -6 2 -12 5 -26 9 -38 1 -5 2 -12 1 -16 -1 -5 3 -6 9 -2 8 5 7 12 -1 23 -12 16 -12 16 5 0 17 -15 17 -18 3 -38 -11 -15 -16 -18 -20 -8 -3 7 -4 3 -4 -8 1 -12 6 -20 12 -17 7 2 18 -4 26 -14 13 -16 12 -17 -3 -4 -11 8 -18 9 -18 3 0 -6 9 -14 20 -17 11 -4 17 -11 14 -17 -4 -7 -2 -8 5 -4 6 4 8 13 5 19 -3 7 8 -4 26 -23 18 -19 29 -28 25 -20 -4 9 -1 9 8 -2 8 -10 17 -18 20 -18 11 0 97 -64 97 -71 0 -4 -4 -11 -10 -14 -5 -3 -10 -2 -10 4 0 5 -10 11 -22 13 -14 2 -23 10 -22 19 1 9 -4 16 -10 16 -32 -1 -46 4 -41 14 4 6 1 10 -6 8 -8 -1 -23 -1 -34 0 -17 1 -18 3 -5 11 12 8 9 10 -13 10 -19 0 -26 4 -21 12 5 8 2 9 -9 5 -10 -3 -17 -3 -17 1 0 5 -11 8 -24 8 -14 0 -22 -4 -20 -8 3 -5 10 -5 16 -2 7 4 8 2 4 -4 -4 -7 25 -26 76 -50 46 -22 101 -53 123 -69 l40 -30 25 51 25 51 -55 53 c-30 29 -90 80 -133 114 -88 70 -87 60 -27 183 66 135 46 134 207 12 77 -59 145 -112 151 -120 9 -10 5 -21 -17 -48 -39 -47 -124 -179 -119 -185 3 -2 18 16 34 41 47 72 118 154 133 155 11 0 11 -4 -2 -18 -10 -10 -14 -22 -10 -27 5 -4 3 -5 -3 -2 -27 15 -173 -188 -199 -276 -8 -28 -15 -59 -15 -68 0 -34 22 -119 30 -119 5 0 4 15 -1 33 -10 33 4 122 21 132 11 7 98 -63 147 -119 23 -26 49 -66 57 -89 15 -40 16 -41 10 -7 -9 51 -60 165 -72 163 -6 -2 -9 4 -6 12 4 9 -11 38 -36 71 l-42 55 26 37 c14 20 57 68 95 106 l69 69 69 -69 c38 -38 81 -86 96 -106 l29 -37 -40 -53 c-47 -63 -63 -92 -97 -183 -29 -79 -27 -96 4 -31 20 41 160 186 179 186 11 0 32 -69 32 -103 0 -14 -5 -38 -11 -54 -10 -27 -9 -27 8 -10 13 13 19 37 21 91 4 69 1 80 -32 148 -19 40 -58 103 -85 139 -67 88 -272 285 -410 394 -114 89 -148 133 -44 55 237 -177 533 -492 559 -594 6 -27 18 -33 29 -16 17 28 209 119 223 105 8 -7 -18 -97 -39 -140 -12 -22 -39 -60 -62 -84 -38 -40 -39 -42 -10 -22 86 58 161 188 168 288 3 37 2 47 -3 28 -4 -18 -14 -30 -24 -30 -9 0 -20 -4 -25 -9 -5 -5 -2 -6 6 -1 10 6 12 4 7 -4 -6 -9 -13 -8 -27 5 -10 9 -16 21 -12 27 3 6 1 7 -6 3 -6 -4 -9 -12 -6 -17 4 -5 1 -9 -5 -9 -6 0 -8 -5 -4 -11 4 -8 -1 -9 -16 -4 -15 5 -20 4 -16 -4 4 -6 3 -11 -3 -11 -5 0 -13 5 -16 10 -8 13 -25 13 -25 -1 0 -5 5 -7 10 -4 6 3 10 2 10 -3 0 -5 -22 -19 -50 -32 -27 -13 -50 -27 -50 -31 0 -5 -7 -6 -15 -3 -11 5 -14 1 -9 -12 5 -15 4 -16 -4 -5 -8 11 -4 22 16 43 15 15 31 28 36 28 18 0 86 52 80 61 -3 5 2 6 10 3 9 -3 16 -1 16 5 0 7 8 11 17 9 10 -2 18 2 18 9 0 6 3 15 8 19 10 10 9 24 -2 24 -5 0 -59 -39 -121 -86 -61 -47 -114 -84 -116 -82 -4 4 92 85 181 153 28 21 50 43 50 49 1 6 7 10 14 8 7 -1 9 2 6 9 -4 6 2 17 14 25 12 8 21 21 21 27 0 8 -3 7 -9 -2 -6 -10 -12 -3 -21 25 -7 22 -20 53 -29 69 -10 17 -17 38 -15 48 1 9 -3 15 -9 14 -6 -1 -11 3 -12 8 -1 20 -40 75 -57 80 -18 6 -58 -14 -58 -29 0 -5 -10 -1 -21 10 -22 19 -22 19 -10 -6 11 -24 11 -24 -3 -6 -18 23 -21 14 -6 -15 6 -11 7 -18 3 -17 -11 4 -83 -40 -83 -50 0 -5 -18 -17 -40 -27 -21 -10 -38 -22 -37 -28 1 -6 -4 -12 -10 -13 -7 -1 -16 -3 -20 -4 -5 -1 -11 -2 -15 -1 -4 0 -5 -6 -1 -15 4 -10 -2 -17 -16 -21 -12 -3 -18 -10 -14 -17 3 -6 -3 -3 -15 8 -18 15 -19 22 -10 40 11 20 10 20 -8 6 -10 -8 -1 5 21 29 50 53 232 205 251 209 9 2 13 11 10 20 -3 9 -2 23 3 31 6 9 2 20 -11 33 -10 10 -16 24 -12 30 4 7 3 8 -4 4 -7 -4 -12 -3 -12 2 0 4 -20 30 -44 57 -25 28 -42 56 -39 65 4 12 3 12 -5 1 -7 -9 -12 -10 -16 -2 -4 6 -4 11 1 11 4 1 -3 8 -17 16 -15 9 -18 13 -6 9 15 -4 17 -3 8 8 -7 8 -10 17 -7 21 3 3 -1 2 -7 -4 -12 -10 -36 -14 -26 -4 3 3 -14 24 -38 46 -24 22 -44 48 -43 57 0 12 2 11 9 -4 7 -16 9 -17 9 -3 1 23 -18 33 -25 14 -5 -14 -8 -14 -21 -1 -13 13 -19 12 -49 -11 -19 -15 -37 -24 -41 -20 -3 3 0 6 7 6 7 0 10 3 7 7 -4 3 -17 -2 -29 -13 -20 -18 -21 -18 -15 -1 4 11 3 16 -3 12 -6 -3 -10 -1 -10 4 0 6 5 11 10 11 6 0 10 3 9 8 -2 16 14 52 24 52 6 0 8 2 5 5 -9 9 -38 -6 -38 -20 0 -7 -3 -15 -7 -17 -21 -9 -248 -277 -327 -386 -21 -29 -41 -51 -43 -48 -9 9 81 126 245 320 117 138 141 170 134 181 -3 5 2 4 11 -4 9 -7 17 -9 17 -3 0 5 -7 15 -15 22 -8 7 -13 16 -10 20 3 5 -1 10 -7 13 -10 3 -10 7 -1 19 10 12 10 15 -2 15 -8 0 -12 -4 -9 -9 7 -11 -3 -10 -27 3 -12 6 -18 17 -15 25 3 9 1 12 -4 9 -6 -3 -10 2 -11 12 0 10 -3 13 -5 6 -6 -12 -60 37 -56 50 1 5 -3 5 -9 1 -7 -4 -10 -2 -7 7 3 8 14 13 24 11 18 -3 18 -3 -1 11 -11 9 -23 13 -27 11 -5 -3 -8 0 -8 7 0 7 -3 9 -6 6 -4 -4 -1 -13 5 -21 8 -10 9 -16 1 -21 -6 -4 -9 -2 -8 4 2 5 -6 17 -17 26 -11 9 -14 13 -6 9 9 -4 12 -3 7 4 -4 6 -13 9 -20 6 -8 -3 -17 3 -20 13 -3 11 -20 29 -36 42 -17 12 -28 26 -25 31 3 5 -4 7 -16 5 -12 -2 -19 -2 -15 2 8 8 -50 63 -68 63 -8 0 -28 -17 -43 -37 -34 -46 -44 -54 -58 -45 -5 3 -3 -3 5 -14 8 -10 10 -16 5 -11 -4 4 -19 -11 -32 -33 -14 -22 -28 -38 -32 -36 -4 3 -8 -4 -8 -15 -2 -18 -68 -110 -85 -117 -5 -2 -8 -10 -8 -18 0 -8 -4 -14 -10 -14 -5 0 -10 -7 -10 -15 0 -8 -5 -15 -11 -15 -13 0 -75 42 -80 55 -2 6 -8 9 -12 7 -14 -4 15 42 106 168 108 150 133 181 140 173 3 -3 -22 -41 -56 -84 -88 -112 -127 -171 -121 -181 3 -5 1 -7 -5 -6 -6 2 -21 -12 -33 -31 -14 -22 -17 -32 -8 -29 7 2 18 12 24 22 10 17 25 35 74 91 9 11 24 32 31 47 8 15 19 25 24 21 6 -4 7 -1 3 6 -5 8 0 14 14 18 16 4 18 8 8 14 -10 7 -9 9 3 9 21 0 42 25 46 53 2 12 8 24 13 25 18 6 11 30 -11 37 -17 6 -18 9 -7 22 15 19 21 52 12 73 -4 8 -8 25 -9 38 0 12 -4 22 -8 22 -4 0 -9 0 -12 0 -3 0 -1 -10 6 -22 11 -22 10 -22 -14 2 -13 14 -22 29 -19 34 3 5 0 6 -7 2 -7 -5 -23 5 -40 23 -32 34 -29 51 3 24 15 -13 14 -10 -3 10 -25 28 -38 36 -25 16 4 -7 1 -10 -7 -7 -8 3 -13 11 -11 17 1 6 -4 10 -10 9 -7 -2 -12 3 -10 10 1 8 -2 11 -8 7 -5 -3 -10 1 -10 10 0 9 -4 13 -10 10 -5 -3 -7 0 -4 8 3 8 0 18 -7 23 -8 5 -10 3 -5 -7 4 -8 -2 -3 -13 10 -12 12 -18 27 -15 32 3 5 -1 6 -9 3 -8 -3 -21 6 -32 22 -9 14 -12 24 -7 20 6 -3 14 -1 18 5 4 7 3 9 -3 6 -13 -8 -65 31 -58 43 3 5 0 12 -6 16 -8 5 -9 3 -4 -6 5 -9 4 -11 -3 -6 -7 4 -12 13 -12 21 0 7 -4 15 -8 17 -4 2 -22 25 -40 51 -18 27 -27 46 -20 42 7 -3 3 2 -9 11 -23 17 -33 41 -11 28 7 -4 8 -3 4 5 -4 6 -11 9 -16 6 -12 -7 -33 22 -24 36 4 7 3 9 -3 6 -6 -4 -19 6 -28 21 -18 27 -18 27 2 9 16 -14 20 -14 20 -2 0 8 -3 12 -6 10 -16 -9 -83 74 -78 97 2 7 2 9 -1 5 -8 -15 -32 31 -25 49 4 10 2 15 -3 11 -9 -5 -67 101 -70 128 0 6 -10 30 -22 55 -11 25 -23 57 -26 72 -2 14 -9 36 -16 47 -7 14 -7 21 0 21 6 0 5 9 -4 23 -8 12 -18 38 -21 57 -11 57 -18 257 -8 263 7 5 10 -23 16 -145 1 -20 6 -34 11 -31 4 3 5 -5 1 -17 -5 -15 -4 -20 4 -16 14 9 14 -10 -1 -37 -11 -21 -10 -21 7 -7 10 8 16 10 12 3 -5 -7 0 -27 9 -45 16 -32 16 -32 -1 -18 -11 9 -7 0 9 -24 14 -21 26 -46 26 -54 0 -8 9 -30 21 -49 12 -18 18 -40 15 -48 -3 -8 4 -21 15 -28 12 -9 17 -20 13 -31 -3 -9 -1 -16 6 -16 6 0 8 6 4 13 -4 7 -3 9 2 4 5 -5 9 -12 9 -15 0 -13 36 -81 45 -87 6 -4 7 -11 4 -17 -4 -7 -2 -8 4 -4 7 4 12 1 12 -8 0 -8 32 -60 70 -115 39 -55 70 -104 70 -109 0 -5 9 -21 21 -36 20 -25 14 -37 -7 -16 -7 7 -11 6 -11 -4 0 -9 9 -13 23 -11 14 1 32 -8 46 -23 13 -14 16 -22 8 -18 -8 4 -6 -1 5 -11 38 -34 75 -85 70 -94 -4 -5 2 -6 12 -2 10 3 15 3 11 -2 -4 -4 4 -16 17 -27 14 -11 25 -24 25 -29 0 -6 10 -20 23 -33 12 -13 47 -51 77 -85 100 -113 123 -136 131 -134 5 2 5 -5 2 -14 -4 -9 -2 -14 3 -11 11 6 45 -28 36 -36 -3 -3 0 -6 6 -6 7 0 12 -4 12 -10 0 -5 -6 -7 -14 -4 -8 3 -17 0 -22 -7 -4 -8 -3 -10 5 -5 6 4 19 2 28 -6 12 -9 15 -9 9 0 -5 8 -1 12 10 12 10 0 15 -3 11 -6 -8 -8 18 -34 33 -34 6 0 8 -5 5 -10 -4 -6 -11 -8 -16 -5 -15 10 -10 -2 8 -16 11 -10 14 -10 9 -1 -4 6 -2 12 3 12 6 0 11 -8 11 -17 0 -15 2 -16 10 -3 8 13 10 13 10 -2 0 -10 12 -24 28 -32 15 -8 36 -23 46 -35 15 -17 16 -23 6 -36 -7 -8 -17 -12 -23 -8 -6 3 -7 1 -3 -5 5 -9 12 -8 26 1 14 8 25 9 36 2 17 -11 20 -30 5 -30 -5 0 -13 -3 -16 -7 -4 -4 4 -5 17 -3 16 3 31 -2 43 -15 10 -11 22 -17 27 -14 6 4 4 -4 -2 -17 -10 -19 -10 -22 0 -12 7 6 19 9 26 6 12 -4 12 -8 2 -21 -7 -9 -8 -13 -2 -9 6 3 26 -5 45 -20 19 -14 26 -23 17 -20 -9 3 -22 -1 -28 -9 -7 -8 -9 -14 -4 -14 5 0 2 -5 -6 -11 -13 -9 -13 -10 0 -6 8 2 15 10 15 18 1 30 59 1 100 -51 17 -21 34 -35 38 -33 5 3 7 -3 5 -13 -2 -10 3 -19 10 -20 6 -1 17 -2 23 -3 5 0 7 -6 4 -12 -4 -6 2 -13 14 -16 11 -3 18 -9 15 -14 -3 -5 0 -9 5 -9 6 0 11 -7 11 -16 0 -8 5 -12 10 -9 6 3 13 -2 17 -12 4 -10 13 -23 21 -29 10 -7 12 -16 7 -25 -7 -11 -5 -11 10 1 17 14 18 13 12 -2 -3 -10 -3 -17 1 -15 10 3 72 -54 68 -62 -6 -10 21 -30 30 -23 5 4 2 -2 -6 -12 -11 -14 -11 -18 -2 -12 9 6 12 3 10 -10 -2 -14 2 -18 19 -16 12 2 24 -2 28 -7 4 -7 -1 -8 -12 -4 -15 6 -16 5 -3 -9 8 -9 17 -14 19 -12 5 5 24 -18 44 -54 16 -28 17 -36 5 -50 -12 -15 -11 -16 5 -3 16 12 22 9 18 -12 -1 -5 3 -6 8 -3 5 3 14 -1 21 -9 11 -13 10 -14 -6 -9 -15 5 -16 4 -4 -4 8 -6 17 -9 21 -6 4 2 10 -3 13 -12 4 -10 2 -13 -7 -8 -7 5 -7 1 2 -10 27 -33 35 0 10 41 -107 176 -259 345 -759 843 -394 392 -556 578 -729 838 -347 521 -398 901 -156 1167 45 49 34 27 -23 -47 -89 -116 -123 -257 -103 -422 29 -239 159 -507 406 -841 137 -186 259 -319 675 -740 517 -524 646 -675 752 -887 76 -153 91 -209 91 -338 1 -122 -15 -177 -73 -261 -71 -104 -240 -211 -385 -245 -87 -20 -99 -24 -94 -28 12 -12 206 30 274 59 17 7 64 23 105 35 87 25 226 93 312 151 78 53 183 153 233 221 23 31 59 66 85 80 70 39 275 196 380 290 353 317 610 729 706 1134 34 145 47 294 41 449 -7 147 -23 234 -73 385 -36 110 -161 380 -176 380 -4 0 5 -27 22 -60 69 -137 109 -302 117 -481 13 -296 -85 -621 -269 -891 -142 -210 -371 -445 -629 -644 l-65 -51 -18 71 c-10 39 -31 105 -47 146 -16 41 -25 77 -20 80 34 21 241 215 306 287 283 310 442 577 518 868 39 149 50 251 44 389 -12 277 -109 489 -320 698 -74 74 -283 235 -292 226 -3 -2 24 -25 59 -51 122 -90 254 -252 313 -386 52 -117 75 -234 75 -386 0 -396 -178 -770 -586 -1233 -107 -123 -343 -352 -360 -352 -6 1 20 29 58 64 60 56 67 65 57 84 -31 58 -157 236 -244 344 l-29 37 122 133 c419 455 648 882 667 1238 15 280 -118 491 -414 657 -105 58 -143 77 -143 68z m317 -213 c117 -116 169 -260 160 -442 -6 -126 -32 -227 -91 -366 -151 -350 -423 -705 -909 -1185 -261 -258 -278 -278 -258 -288 11 -7 21 -8 21 -4 0 15 21 -14 25 -35 3 -16 -1 -20 -17 -17 -17 4 -18 2 -7 -11 21 -25 -9 -13 -44 18 -32 29 -53 84 -22 58 9 -7 14 -19 11 -26 -3 -8 0 -11 10 -7 13 5 13 7 0 22 -14 15 9 41 263 296 295 297 445 464 583 647 207 275 320 479 384 694 31 107 43 286 25 377 -16 76 -70 180 -126 245 -50 55 -54 70 -8 24z m-2444 -232 c-3 -12 -8 -19 -11 -16 -5 6 5 36 12 36 2 0 2 -9 -1 -20z m2555 -45 c-3 -3 -9 2 -12 12 -6 14 -5 15 5 6 7 -7 10 -15 7 -18z m-2578 -60 c-7 -45 -7 -46 -9 -13 -1 32 8 74 14 66 1 -2 -1 -25 -5 -53z m2590 10 c0 -14 -2 -25 -4 -25 -2 0 -6 11 -8 25 -3 14 -1 25 3 25 5 0 9 -11 9 -25z m331 8 c13 -16 12 -17 -3 -4 -17 13 -22 21 -14 21 2 0 10 -8 17 -17z m-251 -13 c0 -5 -2 -10 -4 -10 -3 0 -8 5 -11 10 -3 6 -1 10 4 10 6 0 11 -4 11 -10z m-3030 -30 c-12 -16 -18 -30 -15 -30 4 0 -1 -8 -11 -17 -9 -10 -32 -49 -50 -88 -186 -392 -57 -904 360 -1425 173 -216 357 -386 850 -788 43 -35 75 -66 72 -69 -5 -5 -268 202 -451 356 -125 104 -408 389 -489 491 -380 479 -522 951 -400 1325 36 112 123 275 145 275 6 0 1 -13 -11 -30z m3312 3 c10 -9 18 -20 18 -26 0 -5 9 -21 20 -36 32 -46 87 -193 105 -283 25 -122 16 -338 -19 -472 -135 -506 -505 -956 -1278 -1556 -62 -48 -66 -55 -44 -63 11 -4 13 -1 9 11 -3 9 -3 14 2 10 8 -7 70 33 92 60 11 13 15 13 30 1 17 -13 17 -13 3 5 -14 18 -13 19 2 13 11 -4 17 -2 15 5 -1 6 4 13 12 16 9 3 11 0 6 -8 -5 -8 -4 -11 3 -6 6 4 8 14 5 24 -3 9 -3 14 1 11 4 -4 20 7 36 23 17 17 35 26 41 22 7 -4 9 -3 6 3 -10 15 20 36 39 29 14 -5 15 -4 4 9 -10 12 -10 15 4 15 9 0 16 5 16 11 0 6 7 8 16 5 15 -6 15 -4 3 11 -12 14 -12 16 1 12 17 -6 62 36 51 47 -3 4 2 4 12 1 12 -5 16 -3 11 5 -5 8 -2 9 10 5 9 -4 15 -3 12 2 -3 5 11 22 32 37 20 16 48 40 61 54 13 14 21 18 17 10 -5 -8 4 -1 19 15 14 17 24 25 21 18 -4 -6 -2 -14 3 -18 6 -3 8 3 6 14 -4 21 20 61 37 61 6 0 17 8 25 18 8 9 11 11 7 3 -5 -9 -3 -12 5 -7 6 4 9 12 6 17 -4 5 1 12 9 15 9 3 16 12 16 20 0 8 7 14 15 14 8 0 15 4 15 9 0 14 57 71 71 71 7 0 10 3 6 6 -8 8 10 25 51 49 17 11 32 24 32 29 0 5 -10 1 -21 -10 -22 -19 -22 -19 -8 4 8 12 17 22 22 22 4 0 5 5 1 12 -4 7 -3 8 4 4 7 -4 22 10 38 33 14 23 30 38 35 36 4 -3 11 0 15 6 5 8 2 10 -7 5 -10 -6 -10 -4 1 6 8 7 21 25 29 40 8 15 18 25 22 23 4 -3 11 5 15 17 4 12 20 35 36 50 16 15 30 38 31 52 2 27 40 69 53 58 4 -4 4 -1 0 6 -4 7 -2 20 6 29 11 14 11 16 -2 8 -13 -8 -13 -6 -1 8 7 9 17 15 21 12 4 -2 6 7 4 21 -2 18 2 24 11 20 10 -3 12 0 8 11 -5 12 -2 15 9 11 8 -4 15 -1 15 8 0 7 -4 11 -9 8 -4 -3 -5 2 -2 11 5 13 9 13 23 3 14 -11 14 -11 3 3 -10 13 -10 22 1 48 7 17 17 28 22 24 4 -5 5 0 2 9 -3 10 1 32 10 50 9 18 20 41 25 51 5 10 6 22 3 28 -4 5 -1 8 7 7 9 -2 12 5 10 22 -2 17 0 21 6 12 7 -10 9 -5 9 15 0 15 8 68 17 117 10 49 18 140 19 203 2 108 9 141 19 88 3 -14 1 -28 -3 -31 -5 -3 -9 -10 -9 -15 0 -6 4 -8 9 -4 6 3 8 -51 6 -137 -3 -152 -9 -206 -25 -222 -13 -13 -13 -29 0 -21 6 3 7 -1 4 -9 -3 -9 -10 -13 -15 -10 -5 3 -6 -1 -3 -9 3 -8 -2 -31 -10 -52 -9 -21 -16 -46 -16 -57 0 -10 -4 -17 -9 -14 -4 3 -6 -6 -3 -21 3 -18 1 -24 -6 -19 -8 5 -10 2 -6 -8 3 -9 1 -16 -6 -16 -6 0 -9 -4 -6 -9 9 -14 -12 -63 -24 -56 -6 3 -7 -1 -4 -9 3 -9 1 -16 -5 -16 -6 0 -8 -6 -5 -14 3 -8 1 -17 -5 -21 -6 -3 -11 -13 -11 -22 0 -19 -45 -74 -54 -66 -3 4 -6 1 -6 -5 0 -6 -6 -12 -12 -15 -7 -2 -2 -2 12 0 17 2 21 1 12 -5 -7 -5 -14 -16 -16 -24 -1 -9 -16 -32 -34 -52 -18 -21 -30 -41 -27 -47 4 -5 2 -9 -4 -9 -6 0 -22 -20 -37 -45 -16 -29 -32 -44 -42 -43 -9 2 -17 -1 -17 -7 0 -5 -4 -16 -9 -24 -7 -10 -5 -12 5 -6 8 5 3 -4 -10 -18 -13 -15 -28 -24 -34 -20 -6 3 -7 1 -4 -5 9 -13 -2 -42 -15 -42 -5 0 -6 5 -3 10 11 18 -1 11 -21 -12 -10 -12 -13 -18 -6 -14 17 10 15 -9 -3 -24 -8 -7 -12 -17 -8 -23 3 -6 1 -7 -6 -3 -9 6 -9 12 1 24 10 15 10 15 -2 4 -8 -7 -16 -17 -16 -22 -1 -6 -2 -16 -3 -22 -1 -9 -4 -8 -11 2 -7 11 -10 11 -10 2 0 -7 -4 -11 -8 -8 -5 3 -9 -1 -9 -9 0 -8 5 -12 11 -9 6 3 -1 -6 -16 -19 -15 -14 -25 -28 -22 -31 2 -3 1 -4 -3 -1 -9 7 -34 -15 -28 -25 3 -4 -2 -13 -10 -20 -8 -7 -15 -9 -15 -6 0 4 -6 1 -14 -6 -8 -7 -12 -16 -10 -20 2 -4 0 -9 -6 -13 -5 -3 -10 -1 -10 6 0 7 -11 -2 -25 -21 -22 -30 -30 -32 -26 -7 1 5 -3 6 -9 2 -6 -3 -8 -11 -5 -16 4 -5 0 -9 -7 -9 -9 0 -9 -3 2 -10 12 -7 12 -10 1 -10 -7 0 -22 -11 -33 -25 -20 -26 -48 -34 -48 -13 0 6 -3 8 -6 5 -4 -4 -1 -14 7 -23 13 -16 12 -16 -11 -4 -22 12 -24 12 -12 -2 8 -10 9 -19 3 -22 -5 -3 -12 0 -14 6 -3 7 -4 -16 -2 -52 2 -36 13 -87 24 -113 58 -136 66 -355 18 -492 -81 -231 -286 -437 -592 -599 -38 -21 -59 -29 -45 -19 84 62 108 84 145 139 49 72 65 137 65 270 0 130 -22 229 -74 339 l-44 93 61 44 c34 23 118 85 186 136 136 104 127 104 162 12 20 -52 53 -190 47 -195 -2 -1 -28 -19 -58 -40 -30 -21 -106 -74 -168 -118 l-112 -81 7 -50 c10 -64 10 -231 1 -273 l-7 -32 47 18 c146 59 179 79 209 128 32 51 78 160 87 206 16 76 15 81 -8 32 -13 -27 -22 -53 -20 -57 3 -5 0 -8 -6 -8 -6 0 -9 -4 -6 -9 9 -13 -43 -123 -54 -116 -5 3 -7 0 -4 -8 7 -18 -40 -69 -83 -91 -41 -20 -52 -21 -27 0 14 11 11 11 -13 -2 -18 -10 -30 -21 -27 -26 3 -4 -1 -5 -9 -2 -8 3 -18 1 -22 -5 -11 -19 -22 -12 -22 14 0 20 2 23 13 14 9 -7 18 -7 33 1 12 6 21 13 21 16 0 2 -9 0 -21 -6 -35 -19 -49 3 -48 79 0 36 4 75 9 86 5 11 9 16 9 11 1 -5 8 -3 16 4 12 10 18 10 33 -1 15 -12 16 -12 5 2 -10 13 -7 18 17 33 17 9 30 14 30 10 0 -3 14 8 32 24 17 17 34 29 38 27 4 -3 13 2 20 10 7 8 18 15 24 15 6 0 18 9 26 19 7 11 17 18 21 15 5 -2 13 5 19 16 13 24 -4 28 -29 6 -32 -27 -283 -178 -288 -173 -3 3 35 31 83 63 49 31 115 74 147 95 32 21 62 39 65 39 4 0 16 13 26 28 19 27 19 27 0 11 -10 -9 -32 -19 -48 -23 -17 -4 -36 -15 -43 -24 -10 -14 -12 -14 -13 -2 0 24 17 43 30 35 8 -5 11 -4 7 2 -8 12 77 75 87 65 4 -3 4 2 0 12 -6 15 -4 17 7 11 11 -7 12 -6 2 6 -6 8 -10 27 -9 42 2 15 0 30 -4 32 -4 2 -13 26 -20 52 -15 59 -52 143 -63 143 -4 0 -2 10 4 23 9 18 9 20 -2 10 -7 -7 -17 -13 -22 -13 -4 0 -5 6 0 13 10 17 -48 -22 -70 -47 -10 -12 -16 -15 -12 -8 3 6 4 12 0 12 -3 0 -10 -10 -15 -22 -8 -21 -9 -22 -10 -3 -1 18 -2 18 -11 -3 -5 -15 -13 -21 -21 -16 -7 4 -10 4 -6 -1 9 -9 -31 -47 -42 -40 -4 3 -10 -5 -13 -16 -3 -12 -10 -18 -17 -14 -6 4 -9 13 -6 21 3 8 0 11 -10 7 -11 -4 -12 -9 -5 -16 14 -14 14 -27 1 -27 -6 0 -22 -12 -35 -26 -14 -15 -29 -23 -36 -18 -8 4 -9 3 -5 -4 4 -7 3 -12 -2 -12 -5 0 -22 -12 -37 -27 l-27 -28 -33 40 -34 39 40 35 c22 18 91 74 152 124 359 290 612 532 771 737 363 469 489 912 366 1289 -30 91 -61 156 -107 219 -26 34 -21 43 9 15z m-277 -81 c-3 -7 0 -10 6 -7 6 4 8 -2 5 -17 -3 -12 -8 -48 -11 -78 -4 -30 -8 -68 -11 -85 -2 -16 -5 -39 -7 -51 -1 -11 -9 -29 -17 -39 -10 -13 -11 -16 -2 -11 10 6 9 0 -3 -23 -9 -17 -13 -36 -10 -41 3 -5 1 -11 -5 -15 -5 -3 -14 -24 -21 -47 -6 -23 -17 -47 -25 -55 -8 -8 -14 -20 -14 -26 0 -7 4 -6 10 3 5 8 10 11 10 5 0 -21 -18 -37 -31 -29 -12 6 -12 5 -1 -8 10 -12 9 -20 -8 -41 -11 -14 -20 -32 -20 -41 0 -9 -4 -16 -10 -16 -5 0 -10 -9 -10 -21 0 -11 -4 -18 -9 -15 -5 3 -11 -7 -14 -23 -3 -15 -22 -49 -41 -75 -20 -25 -36 -51 -36 -57 0 -6 -7 -8 -16 -5 -14 5 -15 4 -4 -9 14 -17 0 -21 -17 -4 -8 8 -13 8 -18 0 -4 -7 -1 -10 7 -9 19 4 11 -32 -13 -58 -10 -11 -19 -25 -19 -30 0 -6 -11 -21 -25 -34 -14 -13 -25 -29 -25 -36 0 -7 -12 -22 -27 -34 -16 -12 -22 -18 -14 -14 10 5 12 3 7 -5 -5 -7 -14 -10 -22 -7 -8 3 -11 0 -8 -8 3 -8 -4 -21 -16 -29 -15 -10 -19 -20 -14 -29 6 -10 4 -10 -9 1 -15 12 -17 11 -17 -8 0 -11 -9 -30 -20 -41 -11 -11 -20 -24 -20 -30 0 -5 -6 -10 -14 -10 -7 0 -21 -11 -30 -25 -10 -16 -22 -23 -29 -18 -9 5 -9 3 0 -9 11 -12 9 -18 -7 -33 -11 -10 -20 -13 -20 -7 0 7 5 12 10 12 6 0 10 6 10 13 -1 6 -9 1 -20 -12 -11 -12 -17 -28 -13 -35 3 -6 3 -8 -1 -5 -8 7 -71 -53 -80 -76 -3 -8 -10 -15 -16 -15 -6 0 -8 6 -4 13 4 6 3 8 -1 4 -13 -11 -15 -38 -2 -30 6 4 8 0 4 -10 -3 -9 -2 -19 3 -22 4 -3 7 -13 5 -23 -2 -9 -4 -20 -4 -24 -1 -5 -6 -8 -12 -8 -5 0 -7 5 -3 12 4 7 3 8 -5 4 -8 -5 -7 -13 4 -29 18 -25 20 -41 3 -31 -7 4 -8 3 -4 -4 4 -6 14 -8 24 -5 9 3 14 3 10 -2 -11 -11 12 -36 25 -28 6 4 7 1 1 -8 -12 -20 -14 -40 -3 -33 5 3 7 10 4 15 -4 5 -2 9 2 9 13 0 34 -40 28 -50 -4 -6 1 -7 11 -3 12 4 15 3 10 -5 -4 -7 -3 -12 3 -12 13 0 54 -67 47 -78 -2 -4 0 -14 6 -22 8 -12 9 -12 4 2 -3 10 -1 20 4 23 6 4 10 2 10 -3 0 -5 15 -29 34 -53 l33 -44 -35 -40 c-19 -22 -32 -34 -28 -27 4 6 2 12 -3 12 -6 0 -11 5 -11 11 0 5 5 7 12 3 7 -4 8 -3 4 5 -4 6 -11 9 -16 6 -11 -7 -32 30 -23 39 3 3 1 6 -7 6 -10 0 -10 3 0 15 9 11 9 15 1 15 -7 0 -9 5 -5 12 4 7 3 8 -5 4 -6 -4 -9 -11 -6 -16 3 -5 0 -12 -6 -16 -7 -4 -9 -3 -5 4 3 6 0 14 -7 19 -16 9 -52 73 -49 86 1 4 -3 6 -9 5 -7 -2 -27 17 -46 42 -19 25 -41 53 -49 63 -7 9 -13 22 -11 28 1 6 -7 13 -17 15 -10 1 -23 8 -27 16 -6 10 -13 8 -31 -8 -13 -12 -29 -19 -37 -16 -10 3 -12 0 -7 -13 4 -12 2 -16 -8 -12 -10 4 -13 1 -9 -9 6 -17 -13 -19 -21 -1 -3 6 -3 2 0 -11 4 -18 1 -25 -15 -29 -11 -3 -18 -9 -15 -14 3 -5 -2 -6 -10 -3 -9 3 -21 -5 -33 -23 -10 -15 -34 -44 -53 -63 -19 -19 -30 -28 -25 -20 6 9 2 8 -7 -3 -9 -10 -27 -27 -40 -38 -13 -11 -16 -17 -8 -13 9 4 12 3 7 -2 -5 -5 -14 -9 -20 -9 -7 -1 -11 -6 -9 -13 3 -17 -21 -10 -36 11 -7 9 -17 15 -22 12 -4 -3 -7 3 -6 12 2 10 8 19 14 19 7 1 17 2 24 3 6 0 9 4 5 7 -7 8 22 39 37 40 6 0 18 -5 26 -10 13 -10 13 -9 2 6 -12 15 -12 20 2 33 9 9 20 14 25 11 5 -3 15 1 22 10 7 8 8 14 3 13 -22 -4 -23 2 -4 21 12 12 26 18 33 14 7 -4 9 -4 5 1 -4 4 -3 14 3 22 9 11 15 11 27 1 13 -11 14 -10 8 8 -4 12 0 28 10 40 8 10 13 13 9 7 -3 -7 -1 -13 4 -13 6 0 11 6 11 14 0 8 23 33 50 56 28 23 47 46 44 52 -4 6 2 5 15 -1 17 -10 20 -9 14 5 -4 11 6 27 31 48 20 18 33 36 28 41 -4 4 1 5 11 2 11 -4 16 -3 12 3 -3 6 -1 10 5 10 6 0 8 5 5 10 -3 6 -1 10 6 10 6 0 22 11 35 25 13 14 21 25 19 25 -3 0 3 9 12 20 19 22 33 26 33 9 0 -5 -4 -7 -10 -4 -6 3 -7 -1 -3 -10 5 -13 7 -14 14 -3 5 7 6 20 3 29 -3 11 9 28 33 49 23 20 30 30 18 26 -14 -5 -11 1 10 18 16 13 33 22 37 20 4 -3 5 1 2 9 -6 16 5 26 37 32 15 3 19 0 15 -10 -8 -22 2 -18 14 4 9 17 7 19 -10 16 -13 -2 -20 2 -20 11 0 8 5 14 10 14 6 0 10 7 10 15 0 8 6 15 13 15 10 0 50 56 44 63 -1 1 16 19 38 40 22 22 34 36 27 32 -11 -6 -11 -3 -1 13 7 12 16 19 20 16 4 -2 9 6 12 17 4 13 10 18 18 13 7 -4 10 -3 5 4 -3 6 -2 13 4 17 6 4 8 11 5 16 -4 5 -2 9 2 9 5 0 19 18 33 39 13 22 28 38 32 35 4 -3 5 2 2 10 -4 9 1 18 10 22 9 3 13 11 10 18 -3 6 2 2 12 -9 14 -17 16 -17 11 -2 -4 9 -1 30 5 45 6 15 12 29 13 32 0 3 11 21 23 40 12 19 22 39 22 43 0 5 4 5 10 2 6 -4 7 1 3 11 -4 12 -3 15 5 10 8 -5 10 -2 6 8 -3 9 -1 16 6 16 6 0 9 4 6 9 -7 11 48 113 57 106 4 -3 3 0 -2 6 -10 13 3 44 29 67 11 10 11 12 1 6 -11 -5 -13 -2 -8 12 3 10 14 47 24 82 10 35 21 61 23 58 3 -2 5 35 5 82 0 48 2 98 4 112 4 22 6 20 13 -15 5 -21 6 -45 3 -53z m-87 3 c-2 -49 -5 -60 -11 -43 -8 21 -1 108 8 108 3 0 4 -29 3 -65z m-2588 24 c0 -5 -4 -9 -10 -9 -5 0 -10 7 -10 16 0 8 5 12 10 9 6 -3 10 -10 10 -16z m15 -137 c-9 -10 -13 3 -19 63 l-6 60 15 -59 c8 -33 13 -61 10 -64z m2556 1 c-8 -14 -10 -9 -10 27 1 42 1 43 10 18 7 -18 7 -33 0 -45z m-1 -33 c0 -5 -4 -10 -10 -10 -5 0 -10 5 -10 10 0 6 5 10 10 10 6 0 10 -4 10 -10z m-2538 -69 c-3 -8 -1 -12 5 -8 10 6 39 -68 34 -87 -1 -5 6 -17 16 -28 14 -15 14 -18 1 -13 -18 7 -41 52 -33 66 4 5 1 9 -5 9 -6 0 -8 5 -4 11 3 6 1 15 -6 19 -7 4 -14 18 -15 31 -2 13 -6 33 -10 44 -4 14 -2 13 8 -4 8 -14 12 -32 9 -40z m2521 17 c-8 -46 -13 -48 -13 -5 0 21 4 37 10 37 5 0 7 -14 3 -32z m-22 -61 c-6 -8 -8 -17 -5 -20 3 -3 -1 -16 -10 -29 -19 -26 -21 -14 -5 31 6 17 16 31 21 31 7 0 6 -5 -1 -13z m527 -22 c1 -20 4 -40 7 -45 3 -5 1 -11 -4 -14 -9 -6 -22 72 -14 87 7 13 10 7 11 -28z m79 -62 c-3 -10 -5 -4 -5 12 0 17 2 24 5 18 2 -7 2 -21 0 -30z m-3607 23 c0 -3 -4 -8 -10 -11 -5 -3 -10 -1 -10 4 0 6 5 11 10 11 6 0 10 -2 10 -4z m2957 -61 c-8 -21 -20 -41 -28 -44 -12 -4 -12 -2 0 12 7 10 10 17 5 17 -5 0 -3 4 4 9 8 5 15 20 15 34 1 14 5 23 10 18 4 -4 1 -25 -6 -46z m-3049 -79 c0 -69 5 -140 12 -160 6 -20 9 -40 6 -45 -3 -5 1 -26 10 -46 8 -21 17 -49 19 -64 2 -14 7 -35 11 -45 5 -13 4 -17 -4 -12 -8 5 -10 2 -6 -8 3 -9 9 -14 13 -11 4 2 16 -19 26 -48 10 -29 28 -73 41 -99 13 -27 20 -48 17 -48 -3 0 0 -8 8 -17 26 -33 40 -64 33 -75 -4 -7 -3 -8 4 -4 11 7 13 3 16 -31 1 -6 11 -20 22 -30 12 -10 24 -27 28 -39 3 -11 16 -31 28 -44 12 -13 23 -31 25 -39 1 -9 7 -17 12 -19 6 -2 11 -9 11 -15 1 -7 12 -25 26 -42 15 -16 23 -24 19 -16 -6 9 -4 12 4 7 6 -4 9 -11 6 -16 -3 -4 9 -22 25 -40 17 -18 30 -36 30 -42 0 -5 5 -6 12 -2 6 4 8 3 5 -3 -3 -5 11 -28 33 -51 21 -23 37 -42 34 -42 -2 0 35 -39 82 -87 47 -49 86 -89 85 -90 -1 -2 1 -3 4 -3 11 0 70 -74 67 -84 -2 -6 0 -8 4 -4 10 11 85 -52 78 -64 -4 -6 -3 -9 2 -5 15 9 81 -46 78 -66 -2 -14 1 -16 11 -7 9 8 14 7 19 -5 3 -8 12 -15 20 -15 7 0 17 -7 20 -16 3 -9 11 -12 18 -8 10 5 10 4 1 -6 -16 -17 -5 -44 12 -30 18 15 29 -18 13 -39 -12 -14 -11 -14 4 -3 10 8 23 10 30 6 8 -5 8 -1 -2 11 -14 18 -14 18 12 0 14 -11 25 -22 25 -25 -3 -9 41 -49 47 -43 3 3 8 -2 12 -11 3 -9 10 -13 15 -10 5 3 9 0 9 -6 0 -6 4 -8 10 -5 6 3 10 -1 10 -10 0 -9 4 -13 10 -10 6 3 10 1 10 -6 0 -7 3 -10 6 -7 5 6 16 -3 88 -70 16 -15 25 -20 21 -12 -6 10 -1 8 13 -4 27 -24 28 -38 2 -61 -19 -17 -19 -17 -16 2 3 12 -1 20 -9 20 -8 0 -11 -5 -8 -10 3 -5 -15 5 -40 24 -25 19 -51 43 -57 54 -8 16 -10 16 -5 2 4 -16 2 -16 -26 3 -28 21 -29 23 -12 37 17 13 17 14 -2 4 -21 -10 -55 2 -55 21 0 6 7 5 18 -3 16 -13 16 -13 -1 7 -9 11 -14 23 -11 26 3 3 1 9 -5 12 -6 4 -8 -2 -6 -14 2 -11 -1 -20 -7 -20 -20 0 -67 41 -62 54 3 8 1 17 -5 21 -7 4 -8 -1 -4 -12 6 -15 4 -16 -8 -6 -8 6 -18 11 -24 11 -5 0 -11 6 -13 14 -2 9 0 8 8 -2 8 -10 10 -11 8 -2 -2 8 -7 13 -12 12 -5 -1 -13 4 -18 12 -7 10 -8 9 -4 -4 6 -21 -4 -23 -23 -5 -11 10 -13 10 -7 0 5 -8 1 -13 -10 -13 -10 0 -14 -3 -11 -7 4 -3 1 -13 -6 -21 -8 -11 -8 -14 0 -9 6 4 3 -10 -7 -30 -32 -64 -50 -110 -50 -127 0 -9 -6 -16 -12 -16 -8 0 -9 -3 -3 -8 14 -10 15 -42 2 -42 -5 0 -2 -10 9 -22 10 -12 14 -18 7 -15 -16 10 -28 -12 -14 -26 9 -9 11 -8 6 4 -10 27 24 18 50 -12 13 -16 29 -30 36 -31 15 -3 43 -24 75 -55 13 -11 42 -31 66 -43 53 -26 122 -86 109 -94 -5 -4 -17 4 -25 16 -9 12 -16 19 -16 14 0 -5 -6 -3 -13 3 -8 6 -18 7 -22 3 -5 -4 -5 -1 -1 6 4 7 1 12 -8 12 -9 0 -25 9 -36 20 -11 11 -23 20 -27 20 -5 0 -23 7 -40 17 -25 13 -31 22 -27 37 6 19 6 19 -10 3 -21 -21 -27 -22 -20 -2 5 11 2 13 -12 8 -12 -4 -15 -3 -10 5 5 8 1 10 -10 5 -12 -4 -15 -3 -10 5 5 8 1 10 -10 5 -14 -5 -16 -3 -10 13 5 14 4 16 -4 8 -9 -9 -9 -17 -1 -32 14 -27 14 -35 -2 -29 -34 13 -7 -144 44 -250 31 -65 83 -133 101 -133 6 0 51 -18 100 -40 50 -22 92 -40 95 -40 2 0 -1 9 -7 19 -5 11 -10 74 -10 140 0 105 -2 120 -17 125 -34 11 -277 164 -282 177 -2 8 9 5 30 -8 19 -11 77 -46 129 -78 52 -32 106 -66 120 -77 l25 -20 6 38 c8 45 16 38 -185 176 l-141 96 2 48 c1 37 54 215 69 232 1 2 56 -36 122 -85 66 -48 151 -110 188 -137 l69 -49 -42 -86 c-62 -127 -77 -192 -77 -352 l-1 -135 38 -76 c27 -56 53 -91 95 -128 31 -28 62 -48 70 -45 7 2 10 0 7 -5 -3 -6 -1 -10 6 -10 7 0 10 -3 6 -6 -8 -8 -184 92 -274 155 -290 204 -442 492 -405 763 7 46 28 137 47 202 19 65 32 122 29 127 -3 5 -7 19 -9 30 -3 12 -7 24 -11 28 -4 3 -4 -2 -1 -11 4 -10 2 -18 -3 -18 -9 0 -14 13 -12 31 1 3 -5 6 -13 6 -8 0 -11 -5 -8 -11 3 -6 -5 0 -19 14 -15 16 -21 29 -16 37 7 8 3 10 -10 6 -11 -2 -23 0 -27 6 -3 6 -3 11 2 10 17 -3 24 1 18 11 -4 7 -13 6 -27 -1 -11 -6 -18 -7 -15 -2 2 4 -5 17 -16 28 -11 11 -17 14 -13 8 4 -7 4 -13 1 -13 -3 0 -12 15 -20 32 -8 18 -14 27 -15 20 0 -7 -5 -10 -10 -7 -6 4 -8 10 -5 15 5 8 -12 24 -63 59 -12 8 -19 18 -16 22 2 4 -4 10 -15 14 -11 3 -22 13 -25 21 -3 8 -2 13 2 10 5 -3 9 1 9 8 0 8 -8 11 -18 9 -9 -3 -20 1 -24 8 -6 8 -4 10 6 4 8 -5 -8 13 -36 39 -27 26 -44 45 -37 41 6 -3 12 -1 12 4 0 6 -6 11 -12 11 -7 0 -26 17 -43 37 -71 88 -68 83 -50 76 15 -5 15 -3 4 15 -10 15 -16 18 -21 9 -7 -11 -12 -3 -9 16 0 4 -4 7 -10 7 -6 0 -8 7 -5 16 3 8 2 13 -2 11 -4 -3 -16 7 -26 21 -12 16 -14 23 -5 18 8 -5 8 -2 -2 6 -22 18 -50 74 -41 83 4 5 1 4 -7 0 -11 -6 -13 -4 -8 8 4 12 2 14 -10 10 -13 -5 -14 -3 -3 17 8 15 8 20 1 16 -12 -8 -15 5 -3 19 4 6 3 7 -2 3 -14 -11 -28 -10 -21 1 3 5 -1 15 -8 23 -8 7 -12 19 -9 27 3 8 0 11 -7 7 -6 -4 -11 -4 -12 1 -5 46 -7 56 -18 62 -7 4 -9 15 -5 26 5 13 4 16 -4 11 -8 -5 -12 0 -12 12 0 11 -7 35 -15 55 -8 19 -11 37 -8 41 4 3 1 6 -6 6 -7 0 -9 5 -6 10 4 6 2 17 -4 24 -6 7 -11 24 -11 37 0 45 -4 68 -11 63 -4 -2 -9 15 -11 39 -2 23 0 44 5 46 5 2 4 7 -2 11 -17 10 -18 211 -2 333 1 4 3 7 5 7 2 0 4 -56 4 -124z m87 31 c0 -39 4 -90 8 -112 5 -28 5 -36 -2 -25 -7 9 -11 10 -11 3 0 -6 5 -15 11 -18 6 -4 8 -13 5 -21 -3 -8 -2 -14 3 -14 7 0 20 -55 24 -102 1 -10 4 -18 8 -18 4 0 10 -7 13 -16 4 -9 2 -13 -5 -8 -6 3 -4 -5 5 -18 10 -15 14 -33 10 -43 -6 -14 -4 -16 7 -10 8 4 11 5 7 0 -4 -4 -3 -14 3 -22 7 -7 13 -25 15 -40 1 -15 10 -30 18 -35 13 -7 14 -13 5 -30 -6 -11 -7 -18 -2 -15 10 6 34 -19 26 -27 -4 -3 0 -6 7 -6 7 0 11 -3 7 -6 -3 -3 8 -28 24 -55 27 -46 42 -84 19 -49 -6 10 -10 11 -10 3 0 -7 11 -20 25 -29 14 -9 23 -19 21 -22 -3 -3 8 -22 25 -43 29 -37 26 -58 -8 -45 -13 5 -13 9 -2 23 8 9 9 14 4 11 -15 -9 -36 5 -39 26 -1 10 -9 22 -17 27 -8 5 -11 9 -7 9 4 0 0 9 -10 20 -9 12 -17 24 -17 28 0 4 -9 21 -21 37 -23 34 -38 69 -26 61 5 -3 9 1 9 8 0 8 -6 12 -14 9 -12 -5 -15 -1 -17 30 -1 6 -6 18 -13 25 -7 7 -9 20 -6 29 4 11 3 14 -5 9 -8 -5 -10 -2 -6 8 3 9 11 13 17 9 6 -3 7 -1 3 5 -4 6 -14 8 -23 5 -13 -5 -15 -2 -10 11 5 11 3 15 -5 10 -7 -5 -9 -2 -5 8 3 9 0 26 -7 40 -7 13 -10 30 -8 37 3 8 0 11 -5 8 -6 -4 -9 7 -7 28 1 20 -1 33 -6 30 -4 -3 -7 10 -6 28 2 17 -2 35 -8 39 -6 4 -11 33 -13 65 -1 32 -3 65 -4 73 -5 35 2 140 9 140 4 0 7 -33 7 -73z m3540 -59 c-7 -168 -8 -168 -18 -168 -5 0 -7 -6 -4 -14 3 -7 -1 -23 -9 -34 -10 -15 -11 -23 -3 -28 9 -5 6 -11 -6 -21 -26 -18 -37 -16 -26 5 15 28 35 115 32 140 -1 12 2 22 7 22 6 0 10 10 11 23 7 191 8 207 16 207 3 0 3 -60 0 -132z m-2931 47 c1 -5 14 -32 29 -59 15 -27 26 -51 23 -53 -4 -5 -46 64 -46 76 0 5 -6 14 -14 21 -8 6 -12 19 -9 27 4 9 2 14 -3 10 -6 -3 -11 9 -12 26 l-2 32 16 -35 c9 -19 17 -39 18 -45z m2323 -10 c0 -8 -4 -12 -9 -9 -4 3 -8 9 -8 15 0 5 4 9 8 9 5 0 9 -7 9 -15z m-24 -40 c-3 -9 -8 -14 -10 -11 -3 3 -2 9 2 15 9 16 15 13 8 -4z m-43 -80 c0 -8 -4 -15 -10 -15 -5 0 -7 7 -4 15 4 8 8 15 10 15 2 0 4 -7 4 -15z m-2185 -5 c3 -5 1 -10 -4 -10 -6 0 -11 5 -11 10 0 6 2 10 4 10 3 0 8 -4 11 -10z m22 -42 c-1 -10 -2 -18 -4 -18 -1 0 -7 8 -12 18 -7 14 -6 19 4 19 7 0 13 -9 12 -19z m2125 -11 c-12 -13 -19 -27 -15 -30 3 -4 1 -7 -6 -7 -7 0 -9 -5 -5 -12 4 -7 3 -8 -4 -4 -9 5 -9 13 -1 29 16 30 41 58 47 52 3 -3 -4 -16 -16 -28z m-2099 -34 c-5 -12 -3 -14 7 -8 9 5 11 4 6 -4 -10 -16 -25 -4 -23 19 1 10 5 17 9 14 4 -3 4 -12 1 -21z m3166 -218 c2 -140 -2 -189 -19 -279 -52 -264 -161 -497 -346 -735 -97 -124 -289 -315 -410 -405 -43 -33 -99 -75 -124 -94 -37 -28 -46 -31 -48 -17 -3 11 -10 15 -22 12 -11 -3 -21 0 -24 7 -2 6 -5 0 -5 -13 -1 -19 2 -21 13 -12 12 10 17 8 26 -8 12 -24 26 -23 54 2 11 9 24 17 29 17 5 0 32 19 61 42 28 24 45 35 38 26 -16 -20 3 -37 21 -19 9 9 8 11 -5 6 -15 -6 -16 -4 -5 19 7 14 17 26 22 26 6 0 21 12 34 25 12 14 27 23 31 20 5 -3 12 0 16 6 5 8 2 10 -7 5 -8 -5 2 5 21 20 19 16 41 29 49 29 8 0 15 7 16 16 4 25 52 72 66 63 7 -4 9 -3 5 4 -4 6 9 27 28 47 34 35 54 46 40 23 -5 -9 -3 -9 9 1 9 7 14 17 11 22 -3 5 10 25 28 43 19 19 32 39 30 46 -3 8 0 10 7 6 6 -4 11 -1 11 6 1 22 38 60 51 52 7 -4 9 -3 6 4 -10 15 3 43 16 35 6 -3 7 -1 3 5 -4 6 2 20 14 32 11 11 20 23 21 28 1 4 6 6 11 4 6 -2 8 4 5 13 -4 10 -1 15 11 15 15 0 15 2 2 10 -13 8 -12 10 3 10 10 0 16 4 12 9 -3 5 0 13 6 16 5 4 8 14 4 23 -3 9 -3 13 1 9 10 -9 33 24 34 48 0 16 2 17 10 5 6 -10 9 -5 8 19 -1 18 4 36 10 40 6 3 14 18 17 34 4 15 11 24 16 21 5 -3 6 2 3 10 -3 9 -1 16 5 16 6 0 8 7 5 15 -4 8 -1 15 6 15 7 0 10 7 7 15 -4 8 -2 17 3 20 6 3 15 15 21 27 8 15 8 19 0 14 -14 -9 -14 -1 -1 22 13 23 50 178 50 210 0 19 3 23 11 15 7 -7 9 -33 5 -69 -3 -33 -6 -70 -7 -84 0 -14 -5 -30 -9 -35 -5 -6 -7 -26 -5 -45 3 -22 1 -30 -4 -22 -6 10 -10 7 -13 -12 -3 -14 -2 -23 2 -21 4 3 2 -12 -6 -33 -7 -20 -13 -45 -14 -54 0 -10 -4 -18 -9 -18 -5 0 -9 -10 -9 -22 1 -22 -9 -53 -38 -123 -6 -16 -15 -40 -19 -52 -3 -13 -10 -23 -15 -23 -5 0 -7 -7 -4 -15 4 -8 1 -15 -5 -15 -6 0 -11 6 -11 13 0 6 -5 4 -11 -6 -6 -10 -8 -21 -5 -24 3 -4 6 -1 6 6 0 7 5 9 10 6 8 -5 7 -11 -1 -21 -6 -8 -8 -14 -4 -14 4 0 2 -7 -5 -15 -7 -8 -16 -12 -21 -9 -5 3 -7 -1 -4 -8 5 -17 -28 -84 -41 -81 -6 1 -10 -8 -10 -20 1 -12 -4 -22 -11 -22 -6 0 -15 -4 -20 -9 -5 -5 -3 -6 5 -2 6 4 12 2 12 -3 0 -6 -6 -11 -12 -11 -9 0 -8 -4 2 -10 8 -5 10 -10 4 -10 -6 0 -34 -35 -62 -77 -59 -91 -105 -143 -125 -143 -8 0 -21 -8 -28 -17 -11 -15 -11 -16 1 -5 8 6 21 12 29 11 11 0 12 -2 3 -6 -6 -2 -9 -10 -5 -16 3 -7 2 -8 -2 -4 -5 4 -14 -1 -19 -12 -19 -33 -97 -112 -106 -106 -5 3 -11 1 -14 -4 -4 -5 -1 -13 5 -17 8 -5 9 -3 4 7 -5 8 -5 11 -1 7 9 -8 9 -17 -1 -20 -4 -2 -21 -18 -38 -35 -18 -18 -36 -29 -40 -25 -5 4 -5 2 -1 -5 4 -7 -4 -22 -20 -35 -15 -13 -36 -32 -47 -43 -11 -11 -16 -13 -12 -5 8 13 6 13 -8 1 -9 -7 -15 -16 -13 -20 1 -3 -6 -15 -17 -25 -20 -19 -20 -19 -13 -1 4 11 -11 0 -33 -23 -36 -38 -51 -47 -73 -43 -4 0 -5 -6 -2 -14 4 -9 0 -15 -8 -15 -7 0 -20 -9 -27 -19 -14 -19 -41 -18 -41 1 0 5 6 6 13 2 6 -4 8 -3 4 1 -4 5 -14 10 -23 11 -14 2 -14 0 0 -20 13 -21 12 -24 -12 -38 -15 -9 -40 -28 -57 -42 -16 -15 -38 -25 -47 -22 -10 2 -21 -1 -25 -6 -3 -7 -1 -8 5 -4 7 4 12 3 12 -1 0 -5 -13 -14 -30 -20 -37 -14 -38 -7 -1 43 67 92 120 309 101 415 -7 38 2 54 14 24 4 -13 10 -14 26 -5 11 6 26 8 33 4 9 -5 9 -4 1 5 -9 10 -17 10 -35 1 -20 -9 -21 -9 -8 2 9 7 16 17 17 23 0 5 6 11 14 13 9 2 8 0 -2 -8 -13 -10 -13 -11 0 -7 8 2 14 11 14 20 -1 9 4 13 12 10 8 -3 14 -10 14 -16 0 -6 3 -7 6 -4 4 4 1 14 -7 24 -8 9 -9 14 -3 10 7 -4 14 0 18 8 3 8 9 15 14 15 5 0 28 18 52 40 41 38 67 46 96 28 6 -4 11 -1 11 7 0 8 -3 13 -5 10 -3 -3 -12 1 -20 8 -13 10 -14 9 -7 -3 4 -8 5 -12 1 -8 -10 8 -8 23 2 23 4 0 20 13 36 28 17 15 36 25 44 22 12 -4 12 -2 3 8 -9 11 -8 17 3 27 9 6 19 9 24 7 4 -3 14 -1 22 5 12 8 11 9 -4 4 -16 -5 -17 -4 -6 9 7 8 17 12 24 8 6 -3 8 -3 4 2 -10 11 11 37 23 29 5 -3 8 -2 7 3 -2 5 7 21 20 37 12 16 22 25 22 21 0 -4 9 4 21 19 11 14 25 23 31 20 6 -4 9 -1 6 7 -2 7 3 21 11 31 17 20 36 25 25 6 -4 -7 -3 -8 4 -4 6 4 9 13 5 21 -3 9 10 33 31 58 51 58 56 65 56 74 0 5 8 16 18 25 27 26 44 48 36 48 -4 0 -4 3 -1 7 4 3 14 -2 23 -13 15 -18 15 -18 5 2 -7 15 -7 25 2 34 10 10 9 11 -3 5 -11 -6 -10 -3 3 12 9 11 17 25 17 32 0 6 6 14 14 17 13 5 30 39 27 57 -1 4 4 7 10 7 5 0 7 4 4 10 -4 6 1 7 11 3 11 -4 15 -2 11 4 -9 14 17 76 27 66 5 -5 5 2 2 14 -4 12 -2 24 4 28 5 3 10 12 10 19 0 8 8 31 17 52 9 22 18 45 19 52 3 19 13 27 21 18 4 -4 3 -10 -2 -14 -12 -9 -18 -30 -24 -90 0 -7 -5 -10 -11 -7 -6 3 -7 -1 -4 -9 3 -9 1 -16 -6 -16 -6 0 -9 -4 -6 -9 6 -10 -44 -132 -58 -142 -5 -4 -6 -11 -3 -16 8 -13 -28 -65 -38 -56 -4 5 -5 3 -2 -3 7 -12 -31 -94 -44 -94 -4 0 -6 -7 -3 -15 5 -11 2 -13 -10 -9 -9 4 -16 3 -15 -2 3 -20 -2 -35 -10 -30 -5 3 -8 -2 -7 -12 0 -9 -5 -16 -12 -14 -8 1 -11 -2 -7 -8 7 -12 -19 -53 -28 -43 -4 3 -7 0 -7 -8 0 -8 -12 -26 -27 -41 -39 -36 -53 -55 -46 -62 4 -3 -4 -15 -17 -26 -21 -18 -25 -19 -40 -5 -14 13 -17 13 -17 0 0 -8 4 -12 8 -9 4 2 11 -1 15 -7 7 -11 -12 -29 -31 -29 -5 0 -3 5 5 10 8 5 10 10 4 10 -6 0 -19 -10 -30 -22 -15 -19 -16 -20 -1 -9 31 24 18 -4 -23 -48 -22 -23 -40 -39 -40 -35 0 5 -7 -2 -16 -14 -8 -12 -20 -19 -26 -16 -6 4 -8 2 -4 -4 3 -6 -3 -17 -14 -25 -11 -7 -17 -17 -12 -22 4 -4 -1 -5 -10 -2 -12 4 -18 1 -18 -8 0 -17 -57 -58 -70 -50 -6 3 -7 -1 -4 -9 3 -9 1 -16 -5 -16 -6 0 -21 -11 -33 -25 -21 -24 -66 -36 -53 -14 4 6 14 8 22 5 8 -3 11 -1 8 4 -3 6 0 10 7 11 10 0 10 2 1 6 -9 3 -10 10 -3 24 19 34 2 20 -22 -18 -12 -21 -21 -44 -20 -52 2 -8 -1 -10 -9 -5 -7 4 -10 3 -5 -4 7 -11 -43 -52 -66 -52 -8 0 -6 -4 5 -11 15 -9 38 4 134 76 199 150 411 370 541 563 136 201 234 458 263 696 11 94 8 274 -6 356 -6 34 -6 34 7 10 10 -18 15 -74 17 -195z m-4246 38 c-12 -367 94 -682 340 -1008 130 -173 481 -499 608 -565 20 -11 40 -29 43 -42 13 -40 37 -162 38 -185 0 -13 4 -23 8 -23 4 0 11 -7 14 -16 3 -8 2 -12 -4 -9 -16 10 -12 0 11 -26 11 -13 18 -31 16 -41 -3 -9 -2 -16 2 -15 3 1 7 -2 9 -8 2 -5 10 -17 18 -26 12 -14 13 -18 2 -22 -10 -4 -9 -6 2 -6 8 -1 27 -16 42 -35 22 -27 24 -34 10 -32 -9 2 -17 9 -17 17 -1 8 -7 13 -14 11 -8 -2 -11 3 -8 13 4 8 1 15 -5 15 -6 0 -20 8 -31 17 -10 10 -24 18 -30 18 -17 0 -21 19 -5 23 9 2 8 0 -2 -8 -10 -8 -11 -10 -2 -8 20 5 10 23 -11 21 -12 -2 -16 1 -11 9 4 7 3 8 -4 4 -12 -7 -92 33 -92 47 0 5 5 5 12 1 7 -4 8 -3 4 4 -4 6 -12 9 -19 7 -7 -3 -30 11 -52 30 -22 19 -43 35 -48 35 -4 0 -6 3 -4 8 3 4 -2 14 -11 22 -14 13 -15 12 -8 -5 6 -17 3 -16 -18 4 -25 23 -36 48 -17 36 5 -3 12 -1 16 4 6 11 -27 7 -48 -5 -8 -5 -7 -2 2 9 12 15 12 17 -1 12 -9 -4 -22 5 -34 20 -10 14 -24 25 -32 25 -7 0 -21 15 -32 32 -11 18 -20 29 -20 25 0 -4 -25 17 -55 47 -38 39 -53 61 -49 73 4 12 3 14 -3 6 -7 -10 -18 -3 -44 24 -19 20 -27 32 -19 27 8 -4 -5 12 -29 36 -36 38 -102 127 -146 199 -5 9 -14 19 -18 22 -5 3 -9 10 -9 15 0 5 -13 27 -28 50 -26 36 -27 41 -12 51 14 10 13 11 -7 6 -14 -4 -22 -2 -18 3 3 5 -8 28 -24 52 -17 25 -26 48 -22 59 4 11 3 14 -6 9 -8 -6 -7 3 4 25 l16 34 -21 -25 c-15 -19 -19 -20 -13 -6 4 12 3 17 -4 13 -5 -3 -10 -1 -10 6 -2 19 -27 81 -36 88 -5 3 -8 10 -7 15 2 16 -24 94 -32 94 -4 0 -5 7 -2 15 4 8 2 21 -4 28 -12 15 -32 108 -26 119 3 4 0 17 -6 28 -8 15 -8 20 1 20 9 0 9 3 0 14 -6 7 -13 31 -15 52 -3 22 -8 63 -12 92 -5 36 -3 52 4 52 7 0 9 -11 6 -30 -5 -20 -3 -30 6 -30 7 0 10 -7 7 -15 -4 -8 -2 -17 3 -20 5 -3 8 -19 6 -35 -2 -16 0 -27 4 -25 4 3 8 -6 8 -19 0 -14 9 -38 21 -55 12 -17 18 -31 12 -31 -5 0 -15 8 -20 18 -6 9 -11 13 -11 8 0 -6 8 -19 18 -30 11 -12 31 -54 46 -95 15 -41 35 -86 46 -101 11 -16 20 -32 20 -37 0 -4 -5 -1 -10 7 -7 10 -10 11 -10 2 0 -7 7 -15 15 -18 8 -4 15 -11 15 -17 0 -5 11 -25 25 -42 13 -18 22 -34 20 -37 -2 -2 14 -27 35 -56 22 -29 40 -56 40 -60 0 -4 -5 0 -10 8 -5 8 -10 10 -10 4 0 -16 25 -35 35 -26 5 4 5 2 2 -4 -4 -7 0 -14 8 -18 8 -3 15 -12 15 -20 0 -8 15 -27 33 -41 17 -15 27 -24 20 -21 -6 4 -15 1 -19 -5 -4 -7 -3 -9 2 -6 5 3 25 -8 43 -24 30 -26 32 -34 8 -30 -5 1 -6 -3 -2 -8 3 -6 13 -7 22 -4 11 4 14 3 9 -6 -4 -6 -4 -10 1 -9 16 6 63 -40 57 -55 -3 -8 -1 -18 5 -22 7 -4 8 1 4 12 -4 11 7 6 30 -16 19 -18 33 -39 31 -46 -3 -7 -1 -16 5 -20 7 -4 8 0 4 12 -4 11 14 0 46 -26 30 -25 50 -49 47 -57 -3 -7 0 -16 6 -20 7 -4 8 -3 4 4 -4 7 -2 12 3 12 6 0 11 -5 11 -11 0 -5 3 -8 8 -5 4 2 23 -9 42 -25 29 -24 33 -30 20 -39 -12 -8 -9 -9 12 -6 15 3 30 0 34 -5 3 -5 24 -21 46 -35 22 -14 37 -28 34 -31 -3 -3 -12 2 -21 11 -9 9 -19 16 -23 16 -3 0 2 -8 11 -17 10 -10 32 -18 49 -19 21 -1 40 -11 56 -29 12 -15 25 -26 27 -24 8 9 -35 50 -110 105 -265 193 -447 376 -597 599 -94 139 -154 262 -209 425 -52 156 -72 277 -73 440 0 119 9 230 19 230 2 0 1 -71 -2 -157z m3130 145 c-8 -13 -9 -18 -12 -38 0 -5 -6 -10 -12 -10 -8 0 -8 5 1 15 7 8 9 15 5 15 -4 0 -2 7 5 15 15 18 24 20 13 3z m-1983 -62 c0 -5 8 -15 18 -22 9 -7 12 -14 6 -14 -15 0 -37 28 -52 65 l-13 30 21 -25 c11 -14 20 -29 20 -34z m2699 -39 c-7 -12 -17 -25 -23 -29 -7 -5 -7 -8 2 -8 7 0 10 -5 7 -10 -4 -6 -9 -8 -13 -6 -4 2 -8 -7 -9 -21 0 -14 -7 -29 -15 -34 -11 -7 -11 -9 1 -9 11 0 11 -3 1 -15 -7 -8 -16 -12 -21 -9 -5 3 -6 -1 -4 -8 8 -19 -50 -154 -64 -150 -7 1 -11 -6 -9 -15 2 -10 -2 -17 -9 -16 -7 2 -10 -3 -7 -11 3 -7 -5 -26 -18 -42 -28 -34 -78 -111 -78 -119 0 -14 -42 -49 -61 -50 -18 -2 -18 0 7 22 15 12 23 23 18 23 -5 0 4 12 19 26 15 14 24 30 21 36 -5 7 -2 9 8 5 9 -3 15 0 15 6 -1 32 4 48 13 42 6 -3 10 3 10 14 0 12 4 21 8 21 5 0 23 32 42 70 24 50 38 69 48 65 12 -4 12 -3 3 9 -8 10 -9 16 -1 21 5 3 15 26 21 51 6 24 16 44 21 44 6 0 7 7 4 16 -4 10 -2 13 6 8 7 -5 9 -2 5 8 -3 9 1 25 9 37 8 12 13 25 9 30 -6 11 26 32 37 25 5 -3 3 -15 -3 -27z m-769 9 c0 -3 -4 -8 -10 -11 -5 -3 -10 -1 -10 4 0 6 5 11 10 11 6 0 10 -2 10 -4z m-1889 -33 c13 -16 12 -17 -3 -4 -10 7 -18 15 -18 17 0 8 8 3 21 -13z m1842 -15 c-5 -7 -19 -30 -32 -50 -25 -41 -39 -52 -20 -15 15 26 51 77 56 77 2 0 0 -6 -4 -12z m-1805 -21 c-1 -2 4 -12 12 -23 14 -19 14 -19 -7 0 -13 10 -20 23 -17 28 3 5 8 7 11 4 2 -2 3 -6 1 -9z m67 -100 c1 -7 6 -11 11 -10 6 1 11 -4 11 -12 0 -14 -26 -9 -28 6 -3 20 -5 25 -13 39 -7 12 -7 13 5 2 8 -7 14 -18 14 -25z m1670 13 c-3 -5 -12 -10 -18 -10 -7 0 -6 4 3 10 19 12 23 12 15 0z m-3008 -82 c-3 -7 -5 -2 -5 12 0 14 2 19 5 13 2 -7 2 -19 0 -25z m4333 -11 c0 -5 -4 -5 -10 -2 -5 3 -10 14 -10 23 0 15 2 15 10 2 5 -8 10 -19 10 -23z m-2920 -3 c0 -8 4 -14 9 -14 5 0 12 -7 15 -16 8 -22 -10 -8 -34 26 -16 23 -17 28 -6 24 9 -3 16 -12 16 -20z m1525 16 c-3 -5 -11 -10 -16 -10 -6 0 -7 5 -4 10 3 6 11 10 16 10 6 0 7 -4 4 -10z m-47 -59 c-13 -15 -26 -27 -30 -25 -4 3 -9 -4 -13 -15 -3 -11 -13 -25 -22 -33 -30 -24 18 44 52 74 39 35 42 35 13 -1z m1432 3 c0 -8 -4 -14 -10 -14 -5 0 -10 9 -10 21 0 11 5 17 10 14 6 -3 10 -13 10 -21z m-4310 -5 c0 -11 -4 -18 -10 -14 -5 3 -7 12 -3 20 7 21 13 19 13 -6z m1445 -8 c-3 -6 3 -14 12 -20 10 -6 13 -11 7 -11 -15 0 -36 25 -27 33 10 10 15 8 8 -2z m-1360 -51 c3 -5 1 -10 -4 -10 -6 0 -11 5 -11 10 0 6 2 10 4 10 3 0 8 -4 11 -10z m1410 -11 c-3 -4 3 -12 12 -18 10 -6 13 -11 7 -11 -6 0 -21 11 -33 24 -23 24 -23 25 -2 19 11 -3 18 -9 16 -14z m2722 4 c-3 -18 -26 -63 -27 -52 0 10 22 69 26 69 2 0 3 -8 1 -17z m-1428 -39 c-6 -8 -17 -14 -23 -14 -6 0 -3 5 7 11 9 6 14 15 11 21 -4 7 -2 8 5 4 9 -6 9 -11 0 -22z m-2689 -5 c0 -11 6 -33 14 -47 26 -51 47 -104 42 -109 -2 -3 7 -21 20 -40 13 -20 24 -42 24 -50 0 -18 40 -96 54 -105 6 -4 7 -8 2 -8 -6 0 -1 -7 10 -16 10 -8 12 -13 4 -9 -13 6 -13 5 0 -7 9 -7 29 -34 45 -60 17 -27 34 -48 38 -48 5 0 6 -4 2 -9 -3 -5 3 -16 13 -23 10 -7 28 -28 41 -45 12 -18 42 -56 66 -84 24 -29 42 -56 39 -60 -3 -5 3 -6 12 -2 12 4 15 2 12 -8 -3 -8 -10 -14 -16 -14 -5 0 -14 -3 -18 -7 -3 -4 3 -5 15 -3 33 6 53 -5 48 -26 -3 -11 0 -22 5 -26 6 -3 8 -1 4 5 -3 6 -2 13 4 17 9 6 15 -17 10 -40 -1 -5 2 -7 6 -3 4 4 14 2 22 -5 13 -10 14 -9 8 3 -4 8 4 0 19 -18 15 -18 30 -30 35 -27 4 3 11 -2 14 -11 3 -8 2 -13 -3 -9 -11 6 -8 -22 4 -32 4 -4 5 -2 1 5 -7 11 -1 11 43 3 2 -1 -1 -7 -6 -13 -15 -20 -10 -41 10 -44 18 -2 18 -1 2 16 -16 18 -16 19 3 17 11 0 19 -4 16 -8 -2 -4 2 -10 8 -13 9 -3 7 -9 -6 -20 -27 -22 -32 -20 -65 13 -16 16 -32 27 -36 23 -3 -3 -3 2 1 12 5 12 4 17 -3 13 -5 -4 -20 5 -33 18 -20 21 -21 27 -9 42 13 16 12 17 -3 4 -15 -11 -22 -10 -47 12 -17 14 -27 28 -24 31 4 3 1 6 -6 6 -7 0 -9 5 -6 10 3 6 -1 10 -9 10 -9 0 -16 3 -16 8 0 15 -47 61 -56 54 -5 -4 -1 2 8 13 21 25 6 64 -18 44 -18 -15 -9 -30 14 -22 14 5 15 4 4 -8 -11 -12 -16 -10 -33 10 -10 13 -19 29 -19 37 0 7 -4 16 -10 19 -6 4 -7 -1 -4 -12 3 -10 -3 -3 -15 15 -12 18 -21 37 -21 43 0 5 -7 12 -16 16 -8 3 -13 12 -10 20 3 8 2 12 -2 9 -5 -3 -16 11 -26 29 -15 26 -16 38 -7 48 8 11 6 18 -12 33 l-22 19 18 -22 c20 -23 5 -45 -16 -23 -9 10 -9 11 3 5 8 -5 4 3 -9 17 -13 14 -22 27 -20 29 2 2 -6 19 -19 37 -16 21 -19 32 -10 32 8 0 9 3 3 8 -18 13 -57 73 -51 79 3 4 6 0 6 -7 0 -7 3 -11 6 -7 4 3 -3 18 -14 32 -12 15 -18 33 -15 42 4 10 2 14 -4 10 -9 -6 -13 6 -14 46 0 9 -3 16 -7 13 -4 -2 -8 6 -8 17 -2 22 -4 34 -23 95 -6 19 -6 32 0 32 5 0 9 -9 9 -21z m1445 -19 c10 -11 16 -20 13 -20 -3 0 -13 9 -23 20 -10 11 -16 20 -13 20 3 0 13 -9 23 -20z m1188 -30 c-15 -16 -30 -30 -32 -30 -5 0 21 33 38 48 26 22 24 13 -6 -18z m-1138 -10 c3 -5 1 -10 -4 -10 -6 0 -11 5 -11 10 0 6 2 10 4 10 3 0 8 -4 11 -10z m-907 -12 c-2 -7 3 -12 10 -10 6 1 11 -1 10 -5 -4 -17 14 -53 24 -47 6 4 8 3 5 -2 -3 -6 11 -28 32 -50 20 -22 35 -47 33 -54 -3 -7 0 -10 6 -6 5 3 17 -5 26 -19 9 -14 14 -25 11 -25 -3 0 10 -14 30 -31 19 -17 35 -41 35 -53 0 -17 2 -18 10 -6 5 8 10 10 10 3 0 -6 31 -44 69 -84 38 -41 67 -77 65 -81 -3 -5 2 -8 11 -8 9 0 14 -4 10 -9 -3 -5 4 -12 15 -16 12 -4 20 -15 20 -28 -1 -22 -1 -22 -12 -2 -7 11 -22 28 -35 38 -13 10 -23 25 -23 33 0 8 -5 12 -10 9 -6 -4 -9 -3 -8 2 2 4 0 8 -3 8 -15 0 -48 38 -42 48 4 6 0 8 -10 4 -12 -4 -14 -2 -10 10 4 10 2 14 -4 10 -13 -8 -46 27 -36 38 5 4 3 5 -4 1 -13 -7 -37 29 -29 43 3 5 -1 12 -10 15 -12 5 -15 2 -10 -11 10 -25 -4 -9 -47 54 -19 29 -37 50 -40 47 -3 -3 -11 10 -18 30 -7 19 -17 32 -23 29 -6 -3 -8 -3 -4 1 4 5 -4 18 -17 31 -14 12 -22 25 -18 28 3 4 1 7 -5 7 -7 0 -12 7 -12 16 0 9 -5 12 -12 8 -6 -4 -8 -3 -5 3 4 6 -1 14 -10 17 -15 6 -15 8 -3 16 21 13 30 12 28 -2z m3022 -38 c0 -5 -5 -10 -11 -10 -5 0 -7 5 -4 10 3 6 8 10 11 10 2 0 4 -4 4 -10z m-2022 -60 c42 -51 37 -51 -13 0 -21 22 -35 40 -30 40 6 0 25 -18 43 -40z m952 16 c0 -2 -8 -10 -17 -17 -16 -13 -17 -12 -4 4 13 16 21 21 21 13z m930 -12 c0 -3 -6 -11 -12 -18 -7 -8 -20 -24 -28 -36 -8 -12 -22 -29 -30 -38 -8 -9 -14 -17 -12 -19 1 -2 -1 -3 -4 -3 -3 1 -17 -16 -30 -36 -29 -42 -54 -69 -54 -58 0 4 -6 -1 -14 -11 -8 -11 -12 -23 -10 -26 2 -4 -3 -12 -11 -19 -8 -7 -15 -9 -15 -4 0 4 -14 -11 -32 -34 -18 -23 -37 -42 -43 -42 -5 0 -4 4 4 9 7 5 10 14 7 20 -5 7 -2 10 6 9 7 -2 12 3 11 9 -2 7 2 12 9 10 7 -1 12 3 13 10 0 6 17 28 38 48 20 20 34 41 31 47 -4 7 -2 8 4 4 7 -4 12 -2 12 4 0 6 5 8 10 5 6 -3 10 1 10 9 0 9 5 16 11 16 5 0 7 5 4 10 -3 6 -1 10 5 10 6 0 9 4 5 9 -3 5 4 12 15 16 11 4 17 11 14 17 -5 7 -2 8 6 3 10 -6 12 -4 7 8 -4 11 -1 17 9 17 8 0 13 4 10 8 -6 10 30 52 44 52 6 0 10 -3 10 -6z m-1795 -90 c9 -15 12 -23 6 -20 -11 7 -35 46 -28 46 3 0 12 -12 22 -26z m1067 -149 c31 -38 83 -109 116 -157 32 -48 62 -84 66 -81 4 4 4 0 0 -10 -3 -9 -10 -17 -14 -17 -12 0 -31 26 -24 33 6 6 -110 168 -182 253 -24 28 -40 54 -37 58 8 7 3 12 75 -79z m-895 -258 l82 -79 -77 -91 c-43 -51 -109 -132 -147 -182 -38 -49 -71 -88 -74 -87 -11 7 -256 219 -309 268 l-54 49 69 101 c37 55 102 146 143 201 l75 101 105 -101 c58 -56 142 -137 187 -180z m-437 258 c-7 -9 -15 -13 -19 -10 -3 3 1 10 9 15 21 14 24 12 10 -5z m1232 -112 c82 -110 157 -218 182 -260 6 -10 -153 -156 -308 -281 -22 -19 -43 -38 -47 -43 -3 -6 -32 25 -64 68 -74 98 -145 185 -200 244 l-43 46 186 176 c103 97 190 176 193 177 3 0 49 -57 101 -127z m-252 17 c0 -5 -5 -10 -11 -10 -5 0 -7 5 -4 10 3 6 8 10 11 10 2 0 4 -4 4 -10z m774 -32 c-4 -6 -10 -5 -15 3 -6 10 -9 9 -9 -7 0 -20 -89 -114 -107 -114 -4 0 -1 6 8 13 9 7 14 19 12 27 -4 13 -3 13 6 0 10 -13 15 -8 12 13 0 4 6 7 15 7 11 0 14 5 10 17 -4 10 -4 14 0 11 8 -8 28 10 37 34 4 11 12 15 22 12 8 -3 12 -11 9 -16z m-2111 -96 c-2 -6 6 -14 17 -17 11 -4 20 -11 20 -16 0 -6 -13 -1 -30 11 -30 21 -41 46 -17 37 6 -2 11 -9 10 -15z m66 -55 c8 -10 7 -14 -2 -14 -8 0 -14 6 -14 14 0 7 1 13 2 13 2 0 8 -6 14 -13z m1881 10 c0 -2 -10 -12 -22 -23 l-23 -19 19 23 c18 21 26 27 26 19z m-1845 -55 c-3 -3 -11 0 -18 7 -9 10 -8 11 6 5 10 -3 15 -9 12 -12z m1800 9 c3 -5 2 -12 -3 -15 -5 -3 -9 1 -9 9 0 17 3 19 12 6z m-1755 -47 c0 -2 -9 0 -20 6 -11 6 -20 13 -20 16 0 2 9 0 20 -6 11 -6 20 -13 20 -16z m1700 3 c0 -2 -11 -14 -24 -26 -18 -17 -26 -19 -31 -10 -5 7 -4 10 2 6 6 -4 18 2 28 13 17 19 25 24 25 17z m-615 -352 l67 -80 -84 -75 c-46 -41 -114 -104 -151 -141 l-68 -66 -57 54 c-31 30 -101 93 -154 140 l-97 86 50 61 c28 33 97 111 152 171 l101 110 87 -90 c48 -49 117 -126 154 -170z m-1585 124 c0 -5 4 -8 9 -4 6 3 20 -8 32 -24 12 -17 27 -27 32 -24 6 4 7 1 3 -6 -5 -8 0 -14 13 -18 11 -3 18 -10 14 -16 -3 -6 -1 -7 6 -3 7 5 24 -4 41 -22 16 -17 32 -27 36 -24 4 4 5 -3 2 -14 -5 -21 12 -28 28 -11 14 14 19 6 20 -33 1 -22 0 -40 -2 -40 -10 0 -84 51 -84 58 0 4 -10 12 -22 17 -13 6 -22 17 -20 24 1 7 -2 10 -7 7 -10 -7 -33 18 -29 31 2 4 -7 21 -19 37 -13 16 -23 25 -23 20 0 -4 9 -18 21 -30 13 -14 17 -24 10 -29 -6 -3 -11 -1 -11 5 0 6 -4 9 -9 6 -13 -9 -34 21 -25 36 6 11 5 11 -8 0 -13 -10 -15 -9 -13 13 2 14 -1 27 -5 30 -5 3 -7 -4 -5 -16 4 -21 4 -21 -15 -4 -19 17 -19 19 -2 31 21 16 32 17 32 3z m1782 -406 c45 -83 81 -173 69 -173 -9 0 -140 -111 -209 -176 -25 -24 -46 -43 -47 -41 -1 1 -18 27 -37 57 -19 30 -55 80 -81 111 l-45 57 41 33 c64 53 261 199 267 199 3 0 22 -30 42 -67z m420 32 c-5 -31 -82 -77 -82 -50 0 8 6 15 13 15 7 0 26 14 42 30 16 17 30 30 30 30 1 0 0 -11 -3 -25z m-1762 -75 c8 -9 21 -15 28 -13 6 3 12 0 12 -6 0 -6 7 -11 15 -11 8 0 15 -3 15 -7 0 -5 19 -17 41 -28 23 -10 43 -25 46 -31 2 -7 14 -11 25 -9 13 3 18 0 15 -9 -3 -8 0 -13 6 -13 43 1 43 1 39 -105 -2 -57 -4 -107 -5 -111 -1 -5 -28 5 -60 22 -32 17 -55 26 -52 21 4 -6 -3 -6 -17 1 -25 11 -88 89 -88 107 0 7 -4 12 -8 12 -5 0 -9 6 -10 13 0 6 -14 52 -31 101 -17 49 -31 93 -31 98 0 11 41 -10 60 -32z m1667 14 c0 -9 -12 -23 -26 -32 -14 -9 -28 -19 -31 -23 -6 -7 -46 -29 -54 -29 -3 0 2 8 12 18 9 11 19 18 22 16 3 -1 14 4 25 12 10 8 15 14 11 14 -6 0 30 36 40 40 0 0 1 -7 1 -16z m-769 -141 c-8 -11 -7 -12 6 -7 9 3 16 1 16 -6 0 -6 5 -8 12 -4 6 4 8 3 4 -4 -3 -5 6 -20 21 -32 16 -12 22 -18 14 -14 -9 5 -12 3 -7 -4 4 -7 14 -12 23 -12 10 0 13 -6 8 -17 -5 -14 -3 -15 6 -6 16 16 64 -40 54 -64 -3 -10 -3 -14 1 -11 4 4 15 3 26 -3 11 -6 17 -13 14 -16 -3 -3 8 -22 24 -41 16 -19 27 -39 24 -44 -3 -5 0 -15 6 -23 7 -8 9 -15 5 -15 -4 0 -2 -7 5 -15 11 -13 10 -14 -4 -9 -11 4 -26 -2 -42 -17 l-26 -24 18 32 c10 17 22 29 26 27 4 -3 3 7 -2 21 -6 15 -8 31 -4 36 3 5 0 9 -7 9 -7 0 -10 3 -7 6 4 3 -11 22 -33 41 -21 19 -39 42 -39 50 0 9 -5 11 -12 7 -10 -6 -10 -4 0 8 10 13 10 18 1 24 -8 4 -9 3 -5 -4 4 -7 3 -12 -1 -12 -15 0 -84 76 -77 83 7 7 -10 11 -34 8 -8 -1 -20 3 -28 10 -12 9 -13 9 -9 -2 2 -8 -9 -29 -25 -47 -25 -27 -33 -31 -48 -22 -16 11 -16 11 0 6 11 -3 15 -1 12 8 -3 7 2 16 10 19 9 4 16 14 16 22 0 9 5 13 11 9 6 -3 10 1 9 12 -4 33 0 45 10 39 6 -3 10 -2 10 3 0 5 7 9 15 9 11 0 12 -4 3 -14z m-358 -163 c72 -55 126 -106 90 -85 -8 4 -42 29 -75 55 -33 26 -79 60 -102 75 -24 15 -43 32 -43 37 0 12 32 -8 130 -82z m1347 46 c-10 -8 -18 -18 -19 -23 0 -12 -10 -25 -41 -52 -30 -27 -37 -23 -9 5 9 10 17 22 17 28 0 6 7 11 15 11 8 0 15 5 15 10 0 16 15 35 28 35 7 0 4 -7 -6 -14z m-1084 -13 c3 -5 -3 -16 -12 -25 -16 -16 -17 -16 -17 7 0 23 19 35 29 18z m-750 -115 c64 -63 77 -80 44 -55 -26 20 -49 39 -50 43 -1 3 -24 28 -50 55 -26 27 -45 49 -42 49 3 0 47 -41 98 -92z m707 80 c0 -7 -14 -29 -31 -48 -17 -19 -26 -26 -20 -14 5 11 17 26 25 34 9 7 16 19 16 26 0 8 2 14 5 14 3 0 5 -6 5 -12z m720 -28 c-12 -22 -21 -26 -17 -7 2 10 17 26 25 27 1 0 -2 -9 -8 -20z m310 -33 c0 -2 -10 -12 -21 -23 -22 -19 -22 -19 -8 4 12 19 29 30 29 19z m-1008 -162 c5 -11 -8 -2 -29 21 -55 58 -71 69 -69 47 0 -10 8 -21 16 -25 12 -5 12 -7 -2 -7 -9 -1 -22 7 -27 17 -8 12 -10 13 -11 3 0 -8 -3 -12 -6 -8 -3 3 2 16 12 30 l18 24 44 -41 c24 -23 48 -50 54 -61z m938 91 c0 -2 -8 -10 -17 -17 -16 -13 -17 -12 -4 4 13 16 21 21 21 13z m-640 -53 c-56 -62 -55 -61 -45 -43 18 32 67 90 77 90 6 0 -9 -21 -32 -47z m585 7 c-10 -11 -21 -18 -23 -15 -3 3 3 12 14 20 27 20 30 18 9 -5z m-1467 -35 c-3 -3 -9 2 -12 12 -6 14 -5 15 5 6 7 -7 10 -15 7 -18z m293 -82 c13 -16 12 -17 -3 -4 -10 7 -18 15 -18 17 0 8 8 3 21 -13z"/> <path d="M4785 3362 c3 -3 -1 -12 -7 -21 -8 -10 -4 -9 10 3 26 23 26 23 7 23 -8 0 -13 -3 -10 -5z"/> <path d="M4633 2983 c4 -3 1 -13 -6 -22 -11 -14 -10 -14 5 -2 16 12 16 31 1 31 -4 0 -3 -3 0 -7z"/> <path d="M4575 2939 c-4 -6 -5 -12 -2 -15 2 -3 7 2 10 11 7 17 1 20 -8 4z"/> <path d="M4322 2626 c7 -8 15 -12 17 -11 5 6 -10 25 -20 25 -5 0 -4 -6 3 -14z"/> <path d="M4260 2599 c0 -5 5 -7 10 -4 6 3 10 8 10 11 0 2 -4 4 -10 4 -5 0 -10 -5 -10 -11z"/> <path d="M4236 2478 c3 -5 10 -6 15 -3 13 9 11 12 -6 12 -8 0 -12 -4 -9 -9z"/> <path d="M4075 2340 c-16 -7 -17 -9 -3 -9 9 -1 20 4 23 9 7 11 7 11 -20 0z"/> <path d="M3994 2138 c4 -23 12 -48 17 -55 6 -6 8 -22 4 -35 -5 -18 -4 -20 4 -8 9 12 11 9 11 -13 0 -19 -4 -26 -12 -21 -7 4 -8 3 -4 -5 4 -6 11 -9 15 -7 4 3 8 -13 8 -35 1 -27 -2 -37 -9 -33 -7 4 -8 2 -4 -5 4 -6 12 -9 17 -6 5 4 8 -28 7 -78 -2 -47 -6 -83 -10 -80 -5 2 -9 -12 -9 -31 -2 -54 -4 -61 -16 -59 -6 1 -15 -17 -18 -40 -9 -54 -53 -175 -75 -207 -25 -38 -32 -50 -25 -50 15 0 107 159 136 237 33 86 34 92 33 238 0 137 -2 157 -27 228 -15 42 -27 84 -27 92 0 8 -5 15 -11 15 -8 0 -9 -14 -5 -42z"/> <path d="M3750 2136 c0 -2 7 -9 15 -16 13 -11 14 -10 9 4 -5 14 -24 23 -24 12z"/> <path d="M3689 2083 c-13 -16 -12 -17 4 -4 16 13 21 21 13 21 -2 0 -10 -8 -17 -17z"/> <path d="M3576 1827 c3 -10 9 -15 12 -12 3 3 0 11 -7 18 -10 9 -11 8 -5 -6z"/> <path d="M3693 1735 c0 -7 6 -11 14 -8 7 3 13 6 13 8 0 2 -6 5 -13 8 -8 3 -14 -1 -14 -8z"/> <path d="M3825 1579 c-4 -6 -5 -12 -2 -15 2 -3 7 2 10 11 7 17 1 20 -8 4z"/> <path d="M3755 1550 c-3 -6 1 -7 9 -4 18 7 21 14 7 14 -6 0 -13 -4 -16 -10z"/> <path d="M3869 1493 c-13 -16 -12 -17 4 -4 16 13 21 21 13 21 -2 0 -10 -8 -17 -17z"/> <path d="M3880 1469 c0 -5 5 -7 10 -4 6 3 10 8 10 11 0 2 -4 4 -10 4 -5 0 -10 -5 -10 -11z"/> <path d="M3845 1421 c-3 -5 0 -13 6 -17 7 -4 9 -3 5 4 -3 5 0 13 6 15 9 4 10 6 1 6 -6 1 -14 -3 -18 -8z"/> <path d="M4190 3696 c0 -2 8 -10 18 -17 15 -13 16 -12 3 4 -13 16 -21 21 -21 13z"/> <path d="M4181 3673 c7 -12 15 -20 18 -17 3 2 -3 12 -13 22 -17 16 -18 16 -5 -5z"/> <path d="M4160 3560 c-6 -11 -8 -20 -6 -20 3 0 10 9 16 20 6 11 8 20 6 20 -3 0 -10 -9 -16 -20z"/> <path d="M4085 3531 c-3 -5 0 -13 6 -17 7 -4 9 -3 5 4 -3 5 0 13 6 15 9 4 10 6 1 6 -6 1 -14 -3 -18 -8z"/> <path d="M4013 3353 c4 -3 1 -13 -6 -22 -11 -14 -10 -14 5 -2 16 12 16 31 1 31 -4 0 -3 -3 0 -7z"/> <path d="M3706 3005 c-9 -26 -7 -32 5 -12 6 10 9 21 6 23 -2 3 -7 -2 -11 -11z"/> <path d="M3663 2975 c0 -8 4 -12 9 -9 5 3 6 10 3 15 -9 13 -12 11 -12 -6z"/> <path d="M3594 2664 c-18 -14 -18 -15 5 -3 22 10 23 9 17 -7 -6 -15 -5 -17 5 -6 21 20 -3 35 -27 16z"/> <path d="M3306 2603 c-6 -14 -5 -15 5 -6 7 7 10 15 7 18 -3 3 -9 -2 -12 -12z"/> <path d="M3136 2462 c-2 -4 -1 -14 3 -20 6 -10 11 -9 21 3 11 13 10 14 -5 9 -13 -5 -16 -4 -11 4 4 7 5 12 2 12 -3 0 -7 -4 -10 -8z"/> <path d="M1425 2952 c-10 -7 -18 -32 -10 -32 2 0 9 9 15 20 12 22 11 24 -5 12z"/> <path d="M1514 2823 c3 -4 2 -11 -4 -17 -5 -7 -5 -17 2 -26 8 -13 9 -12 5 2 -5 15 13 42 24 35 2 -1 3 0 1 2 -1 3 -10 6 -18 7 -9 1 -13 0 -10 -3z"/> <path d="M1606 2741 c-4 -5 -2 -12 3 -15 5 -4 12 -2 15 3 4 5 2 12 -3 15 -5 4 -12 2 -15 -3z"/> <path d="M1816 2481 c-4 -5 -2 -12 3 -15 5 -4 12 -2 15 3 4 5 2 12 -3 15 -5 4 -12 2 -15 -3z"/> <path d="M1991 2127 c-35 -135 -42 -179 -43 -272 -1 -73 5 -123 21 -184 23 -90 94 -235 143 -291 26 -30 27 -31 10 -5 -57 87 -99 205 -105 294 -1 22 -6 43 -10 48 -5 4 -5 0 -1 -10 3 -9 2 -17 -4 -17 -13 0 -20 20 -14 43 4 15 7 15 21 5 14 -12 15 -11 2 5 -14 17 -16 17 -27 3 -9 -13 -11 3 -9 78 2 51 6 104 10 116 5 15 4 20 -4 16 -12 -8 -4 21 11 41 6 7 7 16 4 21 -3 5 2 37 10 70 9 36 12 67 7 76 -6 11 -12 1 -22 -37z m17 -478 c-3 -8 -7 -3 -11 10 -4 17 -3 21 5 13 5 -5 8 -16 6 -23z"/> <path d="M2040 1810 c0 -5 10 -15 23 -21 22 -12 22 -12 3 10 -21 23 -26 26 -26 11z"/> <path d="M2257 1649 c7 -7 15 -10 18 -7 3 3 -2 9 -12 12 -14 6 -15 5 -6 -5z"/> <path d="M2175 1310 c10 -11 20 -20 23 -20 3 0 -3 9 -13 20 -10 11 -20 20 -23 20 -3 0 3 -9 13 -20z"/> <path d="M1380 3253 c0 -6 8 -17 18 -24 16 -13 16 -13 2 6 -8 11 -16 22 -17 24 -2 2 -3 0 -3 -6z"/> <path d="M5039 2653 c-13 -16 -12 -17 4 -4 16 13 21 21 13 21 -2 0 -10 -8 -17 -17z"/> <path d="M4719 2463 c-13 -16 -12 -17 4 -4 16 13 21 21 13 21 -2 0 -10 -8 -17 -17z"/> <path d="M4735 2450 c-3 -6 1 -7 9 -4 18 7 21 14 7 14 -6 0 -13 -4 -16 -10z"/> <path d="M4856 2428 c3 -5 10 -6 15 -3 13 9 11 12 -6 12 -8 0 -12 -4 -9 -9z"/> <path d="M4803 2223 c0 -9 4 -10 14 -2 7 6 13 12 13 14 0 1 -6 2 -13 2 -8 0 -14 -6 -14 -14z"/> <path d="M4443 2155 c0 -8 4 -12 9 -9 5 3 6 10 3 15 -9 13 -12 11 -12 -6z"/> <path d="M4725 2150 c-3 -5 -5 -10 -3 -11 33 -8 38 -7 27 7 -14 17 -16 17 -24 4z"/> <path d="M4329 2068 c-5 -18 -6 -38 -1 -34 7 8 12 36 6 36 -2 0 -4 -1 -5 -2z"/> <path d="M4643 1993 c0 -9 4 -10 14 -2 7 6 13 12 13 14 0 1 -6 2 -13 2 -8 0 -14 -6 -14 -14z"/> <path d="M4257 1649 c7 -7 15 -10 18 -7 3 3 -2 9 -12 12 -14 6 -15 5 -6 -5z"/> <path d="M4045 1509 c-4 -6 -4 -13 -1 -16 3 -4 6 -1 6 5 0 6 7 9 16 5 13 -5 13 -7 2 -14 -9 -6 -9 -9 -1 -9 21 0 24 19 4 30 -14 7 -22 7 -26 -1z"/> <path d="M1063 2575 c0 -8 4 -12 9 -9 5 3 6 10 3 15 -9 13 -12 11 -12 -6z"/> <path d="M1126 2437 c3 -10 9 -15 12 -12 3 3 0 11 -7 18 -10 9 -11 8 -5 -6z"/> <path d="M1190 2315 c-7 -9 -11 -17 -9 -20 3 -2 10 5 17 15 14 24 10 26 -8 5z"/> <path d="M1166 2277 c3 -10 9 -15 12 -12 3 3 0 11 -7 18 -10 9 -11 8 -5 -6z"/> <path d="M1185 2241 c-3 -5 -2 -12 3 -15 5 -3 9 1 9 9 0 17 -3 19 -12 6z"/> <path d="M1261 2113 c7 -12 15 -20 18 -17 3 2 -3 12 -13 22 -17 16 -18 16 -5 -5z"/> <path d="M1301 2064 c6 -7 16 -11 21 -8 11 7 3 17 -18 20 -12 2 -13 -1 -3 -12z"/> <path d="M1520 2040 c0 -5 5 -10 11 -10 5 0 7 5 4 10 -3 6 -8 10 -11 10 -2 0 -4 -4 -4 -10z"/> <path d="M1694 1869 c-3 -6 -2 -15 3 -20 5 -5 9 -1 9 11 0 23 -2 24 -12 9z"/> <path d="M1545 1790 c3 -5 8 -10 11 -10 2 0 4 5 4 10 0 6 -5 10 -11 10 -5 0 -7 -4 -4 -10z"/> <path d="M1655 1751 c-3 -5 -2 -12 3 -15 5 -3 9 1 9 9 0 17 -3 19 -12 6z"/> <path d="M4613 3233 c-4 -10 -11 -21 -16 -24 -5 -4 -5 -9 1 -13 6 -3 15 8 21 24 10 31 5 43 -6 13z"/> <path d="M1230 2491 c0 -6 4 -13 10 -16 6 -3 7 1 4 9 -7 18 -14 21 -14 7z"/> <path d="M1485 2210 c-3 -5 -5 -10 -3 -11 33 -8 38 -7 27 7 -14 17 -16 17 -24 4z"/> <path d="M1670 2826 c0 -2 8 -10 18 -17 15 -13 16 -12 3 4 -13 16 -21 21 -21 13z"/> <path d="M2816 2343 c-6 -14 -5 -15 5 -6 7 7 10 15 7 18 -3 3 -9 -2 -12 -12z"/> <path d="M3605 2231 c-3 -5 -2 -12 3 -15 5 -3 9 1 9 9 0 17 -3 19 -12 6z"/> <path d="M3341 2174 c0 -11 3 -14 6 -6 3 7 2 16 -1 19 -3 4 -6 -2 -5 -13z"/> <path d="M3043 2095 c0 -8 4 -12 9 -9 5 3 6 10 3 15 -9 13 -12 11 -12 -6z"/> <path d="M2789 1908 c-5 -18 -6 -38 -1 -34 7 8 12 36 6 36 -2 0 -4 -1 -5 -2z"/> <path d="M3145 1811 c-3 -5 -2 -12 3 -15 5 -3 9 1 9 9 0 17 -3 19 -12 6z"/> <path d="M2920 1756 c0 -2 8 -10 18 -17 15 -13 16 -12 3 4 -13 16 -21 21 -21 13z"/> <path d="M2075 1629 c-4 -6 -4 -13 -1 -16 3 -4 6 -1 6 6 0 7 5 9 12 5 7 -4 8 -3 4 4 -9 15 -13 15 -21 1z"/> <path d="M2106 1508 c3 -5 10 -6 15 -3 13 9 11 12 -6 12 -8 0 -12 -4 -9 -9z"/> <path d="M2139 1469 c-9 -17 -8 -24 7 -38 17 -15 17 -15 5 1 -9 13 -10 22 -1 37 6 12 8 21 6 21 -3 0 -10 -10 -17 -21z"/> <path d="M2292 1341 c-11 -7 -11 -9 0 -14 9 -3 15 1 15 9 0 8 -1 14 -1 14 -1 0 -7 -4 -14 -9z"/> <path d="M4080 4696 c0 -2 8 -10 18 -17 15 -13 16 -12 3 4 -13 16 -21 21 -21 13z"/> <path d="M4127 4669 c7 -7 15 -10 18 -7 3 3 -2 9 -12 12 -14 6 -15 5 -6 -5z"/> <path d="M1409 4543 c-13 -16 -12 -17 4 -4 16 13 21 21 13 21 -2 0 -10 -8 -17 -17z"/> <path d="M4750 4396 c0 -2 8 -10 18 -17 15 -13 16 -12 3 4 -13 16 -21 21 -21 13z"/> <path d="M1340 4121 c0 -6 4 -13 10 -16 6 -3 7 1 4 9 -7 18 -14 21 -14 7z"/> <path d="M4985 4069 c-3 -4 2 -6 10 -5 21 3 28 13 10 13 -9 0 -18 -4 -20 -8z"/> <path d="M1895 3979 c-4 -6 -5 -12 -2 -15 2 -3 7 2 10 11 7 17 1 20 -8 4z"/> <path d="M2420 3869 c0 -5 -6 -7 -12 -3 -7 4 -9 3 -5 -1 13 -15 36 -14 30 1 -6 17 -13 18 -13 3z"/> <path d="M2020 3656 c0 -2 8 -10 18 -17 15 -13 16 -12 3 4 -13 16 -21 21 -21 13z"/> <path d="M1850 3626 c0 -2 8 -10 18 -17 15 -13 16 -12 3 4 -13 16 -21 21 -21 13z"/> <path d="M3195 3610 c-3 -5 -3 -10 2 -10 4 0 1 -5 -7 -11 -12 -8 -12 -10 -1 -7 8 2 15 12 17 21 3 19 -2 22 -11 7z"/> <path d="M3925 3579 c-4 -6 -5 -12 -2 -15 2 -3 7 2 10 11 7 17 1 20 -8 4z"/> <path d="M3160 3500 c-9 -6 -10 -10 -3 -10 6 0 15 5 18 10 8 12 4 12 -15 0z"/> <path d="M3240 3466 c0 -2 8 -10 18 -17 15 -13 16 -12 3 4 -13 16 -21 21 -21 13z"/> <path d="M1980 3430 c-9 -6 -10 -10 -3 -10 6 0 15 5 18 10 8 12 4 12 -15 0z"/> <path d="M2756 3347 c3 -10 9 -15 12 -12 3 3 0 11 -7 18 -10 9 -11 8 -5 -6z"/> <path d="M2566 3189 c3 -6 8 -8 11 -5 3 3 15 0 27 -6 16 -8 18 -8 10 1 -14 15 -57 24 -48 10z"/> <path d="M2200 3170 c0 -5 5 -10 11 -10 5 0 7 5 4 10 -3 6 -8 10 -11 10 -2 0 -4 -4 -4 -10z"/> <path d="M3416 3168 c3 -5 10 -6 15 -3 13 9 11 12 -6 12 -8 0 -12 -4 -9 -9z"/> <path d="M2185 3140 c3 -5 8 -10 11 -10 2 0 4 5 4 10 0 6 -5 10 -11 10 -5 0 -7 -4 -4 -10z"/> <path d="M1571 3107 c-8 -10 -7 -14 2 -14 8 0 14 6 14 14 0 7 -1 13 -2 13 -2 0 -8 -6 -14 -13z"/> <path d="M4424 3098 l-19 -23 23 19 c21 18 27 26 19 26 -2 0 -12 -10 -23 -22z"/> <path d="M2250 3096 c0 -2 8 -10 18 -17 15 -13 16 -12 3 4 -13 16 -21 21 -21 13z"/> <path d="M1645 3031 c-3 -5 -2 -12 3 -15 5 -3 9 1 9 9 0 17 -3 19 -12 6z"/> <path d="M2295 3031 c-3 -5 -2 -12 3 -15 5 -3 9 1 9 9 0 17 -3 19 -12 6z"/> <path d="M2346 2991 c-3 -5 1 -12 10 -15 22 -8 25 -4 9 11 -8 7 -16 9 -19 4z"/> <path d="M3823 2975 c0 -8 4 -12 9 -9 5 3 6 10 3 15 -9 13 -12 11 -12 -6z"/> <path d="M3286 2858 c3 -5 10 -6 15 -3 13 9 11 12 -6 12 -8 0 -12 -4 -9 -9z"/> <path d="M3710 2796 c0 -2 8 -10 18 -17 15 -13 16 -12 3 4 -13 16 -21 21 -21 13z"/> <path d="M2626 2692 c-3 -5 1 -9 9 -9 8 0 12 4 9 9 -3 4 -7 8 -9 8 -2 0 -6 -4 -9 -8z"/> <path d="M2675 2670 c10 -11 20 -20 23 -20 3 0 -3 9 -13 20 -10 11 -20 20 -23 20 -3 0 3 -9 13 -20z"/> <path d="M2646 2661 c-4 -5 -2 -12 3 -15 5 -4 12 -2 15 3 4 5 2 12 -3 15 -5 4 -12 2 -15 -3z"/> <path d="M1329 2558 c-5 -18 -6 -38 -1 -34 7 8 12 36 6 36 -2 0 -4 -1 -5 -2z"/> <path d="M4646 2542 c-3 -5 1 -9 9 -9 8 0 12 4 9 9 -3 4 -7 8 -9 8 -2 0 -6 -4 -9 -8z"/> <path d="M4645 2511 c-3 -5 -2 -12 3 -15 5 -3 9 1 9 9 0 17 -3 19 -12 6z"/> <path d="M2290 2471 c0 -7 -5 -9 -12 -5 -7 5 -8 3 -3 -5 5 -9 10 -10 18 -2 6 6 8 14 4 18 -4 3 -7 1 -7 -6z"/> <path d="M2958 2377 c18 -19 20 -26 9 -37 -10 -12 -9 -12 5 -1 14 10 15 16 5 32 -6 10 -18 21 -27 24 -8 4 -6 -3 8 -18z"/> <path d="M2934 2275 c-4 -9 -4 -19 0 -22 3 -4 6 2 6 13 0 16 2 17 10 4 6 -9 10 -10 10 -3 0 19 -20 26 -26 8z"/> <path d="M3102 2218 c2 -7 -3 -12 -10 -10 -8 1 -11 -2 -7 -8 3 -5 10 -10 15 -10 12 0 20 29 9 35 -5 4 -8 1 -7 -7z"/> <path d="M2859 2183 c-13 -16 -12 -17 4 -4 16 13 21 21 13 21 -2 0 -10 -8 -17 -17z"/> <path d="M4263 2133 c0 -9 4 -10 14 -2 7 6 13 12 13 14 0 1 -6 2 -13 2 -8 0 -14 -6 -14 -14z"/> <path d="M1823 2055 c0 -8 4 -12 9 -9 5 3 6 10 3 15 -9 13 -12 11 -12 -6z"/> <path d="M3235 2050 c10 -11 20 -20 23 -20 3 0 -3 9 -13 20 -10 11 -20 20 -23 20 -3 0 3 -9 13 -20z"/> <path d="M1223 2015 c0 -8 4 -12 9 -9 5 3 6 10 3 15 -9 13 -12 11 -12 -6z"/> <path d="M4776 2012 c-3 -5 1 -9 9 -9 8 0 12 4 9 9 -3 4 -7 8 -9 8 -2 0 -6 -4 -9 -8z"/> <path d="M3330 1945 c-7 -9 -11 -17 -9 -20 3 -2 10 5 17 15 14 24 10 26 -8 5z"/> <path d="M3330 1866 c0 -2 7 -7 16 -10 8 -3 12 -2 9 4 -6 10 -25 14 -25 6z"/> <path d="M3265 1783 c-127 -100 -172 -141 -172 -157 0 -22 10 -20 25 4 7 12 16 19 20 16 5 -3 14 0 22 6 12 8 11 9 -4 4 -15 -5 -15 -2 5 18 18 18 28 22 41 15 13 -7 16 -6 12 4 -3 8 2 17 11 21 9 3 13 10 10 16 -3 6 1 7 9 4 9 -3 13 -11 9 -17 -3 -6 -1 -7 6 -3 9 6 9 11 -1 24 -11 14 -10 15 7 8 11 -4 17 -4 14 -1 -3 3 9 22 28 41 19 20 37 34 40 30 4 -3 1 -6 -5 -6 -7 0 -12 -5 -12 -12 0 -8 6 -7 16 4 15 15 12 39 -4 38 -4 -1 -38 -26 -77 -57z"/> <path d="M3474 1797 c-3 -9 -11 -14 -17 -10 -6 4 -7 1 -3 -6 5 -7 15 -10 23 -7 11 5 13 2 9 -9 -3 -9 -2 -13 4 -10 6 3 10 4 10 1 0 -2 3 -12 7 -22 5 -13 3 -15 -8 -10 -8 4 -6 1 4 -7 10 -8 19 -24 20 -35 0 -11 5 -18 11 -15 5 4 7 -1 3 -11 -4 -11 -3 -15 4 -10 8 4 9 -1 4 -16 -4 -14 -3 -20 3 -16 9 5 27 -56 24 -80 -1 -6 5 -17 13 -24 18 -15 19 -5 4 58 -10 44 -72 190 -96 226 -11 18 -13 18 -19 3z"/> <path d="M3070 1610 c0 -11 2 -20 4 -20 2 0 6 9 9 20 3 11 1 20 -4 20 -5 0 -9 -9 -9 -20z"/> <path d="M1702 1561 c-11 -7 -11 -9 0 -14 9 -3 15 1 15 9 0 8 -1 14 -1 14 -1 0 -7 -4 -14 -9z"/> <path d="M2813 1495 c0 -8 4 -12 9 -9 5 3 6 10 3 15 -9 13 -12 11 -12 -6z"/> <path d="M1925 1381 c-3 -5 -2 -12 3 -15 5 -3 9 1 9 9 0 17 -3 19 -12 6z"/> <path d="M2914 1312 c4 -3 14 -7 22 -8 9 -1 13 0 10 4 -4 3 -14 7 -22 8 -9 1 -13 0 -10 -4z"/> <path d="M2666 1272 c-3 -5 1 -9 9 -9 8 0 12 4 9 9 -3 4 -7 8 -9 8 -2 0 -6 -4 -9 -8z"/> <path d="M3389 1093 c-13 -16 -12 -17 4 -4 9 7 17 15 17 17 0 8 -8 3 -21 -13z"/> </g> </svg>